<svg xmlns="http://www.w3.org/2000/svg" width="29" height="40" fill="none" data-ratio="vertical"><path fill="#E2DAC4" d="m25.805 8.427.556.278 1.072-2.102.59.211v22.724l-.314.18a26.46 26.46 0 0 1-26.445.009l-.313-.18V6.813l.59-.211 1.071 2.102.557-.278a25.27 25.27 0 0 1 22.636 0Z"/><path fill="url(#a)" d="M28.023 30.262a27.09 27.09 0 0 1-27.072.009v1.94l13.488 6.738 13.584-6.738z"/><path fill="url(#b)" d="M26.085 7.866a25.9 25.9 0 0 0-23.197 0L.846 3.855a30.43 30.43 0 0 1 27.281 0z"/><path fill="#243B2E" fill-rule="evenodd" d="m26.361 8.705-.557-.278a25.27 25.27 0 0 0-22.635 0l-.557.278-.283-.555-.741-1.455L.287 4.14 0 3.578l.565-.283a31.05 31.05 0 0 1 27.843.001l.565.283zm-.276-.84a25.9 25.9 0 0 0-23.197 0l-.74-1.454q-.51-.997-1.017-1.996l-.285-.559a30.42 30.42 0 0 1 27.282 0l-2.043 4.01Z" clip-rule="evenodd"/><path fill="#243B2E" fill-rule="evenodd" d="m27.433 6.603.59.211v25.397l-13.584 6.738L.951 32.21V6.814l.59-.211-.43-.846-1.101.395v26.641L14.438 40l14.526-7.206V6.152l-1.1-.395z" clip-rule="evenodd"/><path fill="#7F7559" d="m3.205 8.409.269.528a24.59 24.59 0 0 1 22.025 0l.27-.528a25.27 25.27 0 0 0-22.564 0"/><path fill="#3B9563" d="M.948 4.058a32 32 0 0 1 4.666-1.874A32 32 0 0 0 .97 4.102zm.139.274a32 32 0 0 1 4.618-1.855 32 32 0 0 0-4.596 1.899zm.14.274a31.5 31.5 0 0 1 4.57-1.835A31.5 31.5 0 0 0 1.249 4.65zm.139.274a31 31 0 0 1 4.522-1.816 31 31 0 0 0-4.5 1.86zm.14.274A31 31 0 0 1 5.98 3.358a31 31 0 0 0-4.452 1.84zm.139.274A30.5 30.5 0 0 1 6.071 3.65a30.5 30.5 0 0 0-4.403 1.82l-.023-.043Zm.14.274c1.416-.7 2.87-1.284 4.378-1.757a30.4 30.4 0 0 0-4.356 1.8zm.14.274a30 30 0 0 1 4.33-1.738A30 30 0 0 0 1.946 6.02l-.022-.044Zm.139.274a30 30 0 0 1 4.282-1.718 30 30 0 0 0-4.26 1.762zm.14.274a29.4 29.4 0 0 1 4.233-1.699 29.4 29.4 0 0 0-4.211 1.743zm.139.274a29 29 0 0 1 4.186-1.68 29 29 0 0 0-4.163 1.723zm.14.274a29 29 0 0 1 4.138-1.66 29 29 0 0 0-4.116 1.703zm.139.273a28.4 28.4 0 0 1 4.09-1.64A28.4 28.4 0 0 0 2.645 7.39l-.023-.044Zm.14.275A28 28 0 0 1 6.804 6a28 28 0 0 0-4.02 1.663zm23.426.043A28 28 0 0 0 22.168 6c1.392.437 2.735.975 4.042 1.62zm.14-.273a28.4 28.4 0 0 0-4.067-1.684c1.408.441 2.766.986 4.09 1.64zm.139-.275a29 29 0 0 0-4.115-1.703 29 29 0 0 1 4.138 1.66zm.14-.274a29 29 0 0 0-4.163-1.722 29 29 0 0 1 4.185 1.679zm.14-.273a29.4 29.4 0 0 0-4.212-1.743 29.4 29.4 0 0 1 4.234 1.699zm.139-.274a30 30 0 0 0-4.26-1.762 30 30 0 0 1 4.282 1.718zm.14-.274a30 30 0 0 0-4.308-1.782 30 30 0 0 1 4.33 1.738zm.139-.274a30.4 30.4 0 0 0-4.355-1.801 30.4 30.4 0 0 1 4.378 1.757zm.14-.274a30.5 30.5 0 0 0-4.404-1.82 30.5 30.5 0 0 1 4.426 1.776zm.139-.274a31 31 0 0 0-4.451-1.84c1.54.483 3.027 1.08 4.474 1.796zm.14-.274a31 31 0 0 0-4.5-1.86 31 31 0 0 1 4.522 1.816zm.14-.274a31.5 31.5 0 0 0-4.548-1.88 31.5 31.5 0 0 1 4.57 1.836zm.139-.274a32 32 0 0 0-4.595-1.899 32 32 0 0 1 4.618 1.855zm.14-.274a32 32 0 0 0-4.644-1.918 32 32 0 0 1 4.666 1.874z"/><path fill="#E2DAC4" fill-rule="evenodd" d="M11.705 3.435a1.6 1.6 0 0 1-.141-.587 1.6 1.6 0 0 1 .076-.598 1.35 1.35 0 0 1 .74-.81q.268-.12.598-.14.335-.018.612.074c.277.092.349.154.49.276q.212.185.336.449t.141.586a1.6 1.6 0 0 1-.077.598 1.3 1.3 0 0 1-.284.482 1.4 1.4 0 0 1-.457.329q-.267.12-.6.14a1.7 1.7 0 0 1-.61-.074 1.35 1.35 0 0 1-.823-.725zm2.18-.713a.87.87 0 0 0-.13-.43.8.8 0 0 0-.306-.278.84.84 0 0 0-.437-.085.83.83 0 0 0-.419.132.8.8 0 0 0-.278.31.86.86 0 0 0-.082.44.86.86 0 0 0 .13.428.8.8 0 0 0 .31.28.84.84 0 0 0 .431.086.84.84 0 0 0 .425-.133.8.8 0 0 0 .274-.311.9.9 0 0 0 .081-.44Zm-3.395-.33.031-.007-.143-.79a.5.5 0 0 1-.233.06l-.14-.002q-.1-.004-.216.009a2 2 0 0 0-.133.02 1.8 1.8 0 0 0-.791.33 1.35 1.35 0 0 0-.454.605 1.5 1.5 0 0 0-.056.797q.056.314.212.558a1.36 1.36 0 0 0 .91.618q.286.057.608-.002a1.47 1.47 0 0 0 .699-.307q.273-.231.383-.576a1.56 1.56 0 0 0 .034-.759.5.5 0 0 1-.006-.148.3.3 0 0 1 .04-.112l-.005-.032-1.23.224a2 2 0 0 1-.2.028 1 1 0 0 1-.171.006l.125.69.032-.005a.33.33 0 0 1 .135-.129.8.8 0 0 1 .265-.087l.39-.07a.55.55 0 0 1-.041.265.6.6 0 0 1-.21.257.8.8 0 0 1-.347.143.85.85 0 0 1-.442-.028.75.75 0 0 1-.34-.242.9.9 0 0 1-.182-.412.84.84 0 0 1 .037-.464.8.8 0 0 1 .274-.351q.192-.14.474-.193l.026-.004.034-.006a2 2 0 0 1 .152-.014 1 1 0 0 1 .158.008l.012.002q.01 0 .017.003a.6.6 0 0 1 .245.086l.006.004.012.007.011.007.008.005.01.006v.001Zm-5.102 2.54a1.6 1.6 0 0 1-.282-.533 1.6 1.6 0 0 1-.073-.599 1.35 1.35 0 0 1 .516-.967 1.7 1.7 0 0 1 .545-.284q.32-.1.612-.08.291.021.543.147.25.126.436.351.185.225.281.534.098.307.074.598a1.3 1.3 0 0 1-.157.538q-.134.246-.362.43a1.7 1.7 0 0 1-.547.284q-.315.1-.609.08a1.35 1.35 0 0 1-.977-.499m1.936-1.23a.87.87 0 0 0-.231-.384.8.8 0 0 0-.365-.194.84.84 0 0 0-.445.026.83.83 0 0 0-.373.231.8.8 0 0 0-.193.37.86.86 0 0 0 .028.447q.075.235.232.382a.8.8 0 0 0 .37.195.84.84 0 0 0 .439-.024.84.84 0 0 0 .38-.233.8.8 0 0 0 .187-.37.9.9 0 0 0-.03-.445Zm-2.535 1.72-.686.295-.672-1.564a2 2 0 0 1-.062-.167.6.6 0 0 1-.024-.125.3.3 0 0 1 .035-.182l-.012-.03-.838.36.013.03q.075.024.148.11.072.085.147.26l.714 1.66a1 1 0 0 1 .083.287.36.36 0 0 1-.026.184l.013.03 1.53-.658a3 3 0 0 1 .176-.069 1 1 0 0 1 .16-.04L5.19 5.11l-.033.014a.3.3 0 0 1-.106.151 1 1 0 0 1-.262.148Zm10.25-3.891q.027.107.022.297l-.057 1.807a1 1 0 0 1-.042.295.33.33 0 0 1-.098.156v.033l.89.028.001-.032a.3.3 0 0 1-.085-.162 1.1 1.1 0 0 1-.021-.298l.057-1.806q.007-.19.04-.296l.032-.078.008-.013a.3.3 0 0 1 .056-.065v-.033l-.89-.028-.002.033q.06.054.088.162Zm1.75 2.2a1 1 0 0 0 .006.303.3.3 0 0 0 .089.165l-.003.032-.907-.092.003-.032q.065-.045.108-.149a1 1 0 0 0 .062-.292l.182-1.798q.014-.134.005-.228a.5.5 0 0 0-.042-.163.3.3 0 0 0-.05-.076l.004-.032 1.055.107q.534.054.808.356.273.3.225.778a1.04 1.04 0 0 1-.192.53.9.9 0 0 1-.427.312 1.4 1.4 0 0 1-.62.063l-.281-.028zm.335-.785-.253-.025.092-.912.253.026q.249.026.366.155t.093.354q-.022.22-.162.324-.141.103-.39.078Zm2.432-.771a3 3 0 0 0-.382.49l-.425.67q-.116.188-.207.285a.5.5 0 0 1-.17.125.33.33 0 0 1-.287-.033.3.3 0 0 1-.088-.09l-.032-.006-.125.69q.03.015.07.029l.016.006.012.004.016.005.023.007.019.006a1.3 1.3 0 0 0 .484.037.8.8 0 0 0 .31-.116 1.4 1.4 0 0 0 .28-.249q.14-.157.283-.385l.424-.67q.114-.18.205-.274a.6.6 0 0 1 .165-.128.3.3 0 0 1 .094-.025.2.2 0 0 1 .082.012l.025.01a.27.27 0 0 1 .111.099l.032.005.13-.723a.3.3 0 0 1-.132-.008l-.01-.003a.9.9 0 0 0-.545-.008.94.94 0 0 0-.379.239v-.001Zm1.396.19a.7.7 0 0 0 .003-.155l-.002-.012-.002-.008a.3.3 0 0 0-.04-.103l.01-.03.854.239-.008.03a.34.34 0 0 0-.127.131 1.2 1.2 0 0 0-.11.277l-.338 1.208q-.064.234 0 .381.066.15.26.203.195.055.329-.038.135-.092.2-.325l.339-1.208q.05-.183.05-.293a.3.3 0 0 0-.044-.178l.009-.031.854.239-.008.031a.3.3 0 0 0-.13.129 1.2 1.2 0 0 0-.11.277l-.35 1.251q-.093.33-.275.531a.8.8 0 0 1-.442.255 1.24 1.24 0 0 1-.59-.037 1.2 1.2 0 0 1-.521-.274.8.8 0 0 1-.246-.448 1.3 1.3 0 0 1 .041-.596l.35-1.25q.033-.111.043-.196zm2.701.689a1.1 1.1 0 0 1-.085.305l-.667 1.645a1 1 0 0 1-.14.262.33.33 0 0 1-.147.113l-.012.03.819.332.012-.03a.3.3 0 0 1-.024-.181q.012-.112.083-.286l.445-1.096.436.878.015.006.925-.35-.452 1.116q-.036.088-.07.154a1 1 0 0 1-.07.11.3.3 0 0 1-.143.113l-.013.03.819.332.012-.03a.33.33 0 0 1-.026-.182 1 1 0 0 1 .082-.287l.667-1.645q.037-.094.078-.166a.8.8 0 0 1 .12-.16l.067-.052a.2.2 0 0 1 .049-.022l.012-.03-.737-.299-.009.023.005.03v.039l-.003.017a.3.3 0 0 1-.04.101.4.4 0 0 1-.191.14l-.797.314-.386-.81a.35.35 0 0 1-.033-.22.24.24 0 0 1 .11-.154l.01-.022-.74-.3-.013.03q.045.074.032.2Z" clip-rule="evenodd"/><path fill="#8B7C58" fill-rule="evenodd" d="M13.803 3.16a.87.87 0 0 0 .08-.439.87.87 0 0 0-.128-.429.8.8 0 0 0-.306-.278.84.84 0 0 0-.437-.085.83.83 0 0 0-.419.132.8.8 0 0 0-.278.31.86.86 0 0 0-.083.44.86.86 0 0 0 .13.428.8.8 0 0 0 .31.28.84.84 0 0 0 .432.086.84.84 0 0 0 .425-.133.8.8 0 0 0 .274-.312m-.708.288a.7.7 0 0 1-.35-.069.63.63 0 0 1-.25-.225.7.7 0 0 1-.106-.35.7.7 0 0 1 .067-.363.63.63 0 0 1 .224-.25.67.67 0 0 1 .391-.107q.172 0 .307.07a.6.6 0 0 1 .246.223.7.7 0 0 1 .103.353.7.7 0 0 1-.065.361.6.6 0 0 1-.22.25.7.7 0 0 1-.347.107" clip-rule="evenodd"/><path fill="#8B7C58" fill-rule="evenodd" d="M14.183 1.532q.237.206.374.5.137.292.156.644c.013.234-.015.456-.085.657a1.5 1.5 0 0 1-.317.538q-.212.23-.507.364a1.8 1.8 0 0 1-.772.157 1.8 1.8 0 0 1-.553-.084 1.5 1.5 0 0 1-.917-.807 1.7 1.7 0 0 1-.155-.644 1.7 1.7 0 0 1 .085-.657 1.52 1.52 0 0 1 .823-.903q.295-.134.655-.153c.241-.014.467.014.67.081s.386.17.543.307m.012 2.233q.191-.206.285-.482.094-.277.077-.598a1.6 1.6 0 0 0-.142-.587 1.3 1.3 0 0 0-.335-.448 1.4 1.4 0 0 0-.49-.276 1.7 1.7 0 0 0-.612-.074q-.33.018-.599.14a1.35 1.35 0 0 0-.74.81 1.6 1.6 0 0 0-.076.598q.018.322.141.586a1.35 1.35 0 0 0 .824.725q.28.092.61.074a1.7 1.7 0 0 0 .6-.14q.267-.121.457-.328m-6.871-.062a.9.9 0 0 1 .03.446.8.8 0 0 1-.19.37.84.84 0 0 1-.378.233.83.83 0 0 1-.439.024.8.8 0 0 1-.37-.195.86.86 0 0 1-.232-.382.86.86 0 0 1-.028-.448.8.8 0 0 1 .193-.369.83.83 0 0 1 .373-.231.84.84 0 0 1 .444-.026q.21.048.366.194.155.146.23.384Zm-.943.92a.7.7 0 0 0 .358-.02.7.7 0 0 0 .31-.19.6.6 0 0 0 .15-.296.7.7 0 0 0-.025-.367.7.7 0 0 0-.188-.316.62.62 0 0 0-.43-.171.8.8 0 0 0-.226.037.67.67 0 0 0-.305.188.63.63 0 0 0-.155.298.7.7 0 0 0 .025.366.7.7 0 0 0 .19.314.63.63 0 0 0 .296.157" clip-rule="evenodd"/><path fill="#8B7C58" fill-rule="evenodd" d="M7.32 2.477q.28.142.486.392.203.25.31.586c.07.223.097.445.08.658a1.5 1.5 0 0 1-.175.6 1.6 1.6 0 0 1-.402.478 1.8 1.8 0 0 1-.598.311 1.9 1.9 0 0 1-.667.087 1.6 1.6 0 0 1-.603-.164 1.5 1.5 0 0 1-.377-.285l.339.789-.205.028a1 1 0 0 0-.13.033q-.08.027-.164.064l-1.674.72-.103-.24.03-.064a.2.2 0 0 0 .012-.104.8.8 0 0 0-.072-.237l-.714-1.66a1 1 0 0 0-.123-.221c-.037-.044-.063-.057-.075-.061l-.069-.022-.102-.24 1.126-.484.106.249-.042.069a.16.16 0 0 0-.013.088.5.5 0 0 0 .019.093q.02.067.055.15l.61 1.42.542-.234a1 1 0 0 0 .223-.124c.043-.035.052-.059.054-.067l.019-.076.178-.077a1.76 1.76 0 0 1-.324-1.143A1.52 1.52 0 0 1 5.45 2.71q.253-.202.596-.31a1.8 1.8 0 0 1 .67-.087q.323.023.602.163ZM5.326 5.842a1 1 0 0 1 .16-.04l-.298-.695-.033.015a.3.3 0 0 1-.106.15 1 1 0 0 1-.261.148l-.686.295-.673-1.564a2 2 0 0 1-.061-.167.6.6 0 0 1-.025-.125.3.3 0 0 1 .036-.182l-.013-.03-.838.36.013.03q.076.025.149.11.072.086.146.26l.714 1.66a1 1 0 0 1 .084.287.36.36 0 0 1-.026.185l.013.03 1.53-.66q.09-.036.175-.067m2.194-.774a1.4 1.4 0 0 0 .362-.43q.135-.248.157-.538a1.6 1.6 0 0 0-.073-.599 1.6 1.6 0 0 0-.282-.533 1.3 1.3 0 0 0-.436-.352 1.4 1.4 0 0 0-.543-.146 1.7 1.7 0 0 0-.611.08 1.7 1.7 0 0 0-.545.283 1.35 1.35 0 0 0-.517.968q-.023.29.074.599.096.308.281.533a1.35 1.35 0 0 0 .977.499q.294.02.61-.08.319-.1.546-.284m3.85-2.299.032-.052-.045-.245-1.385.251a3 3 0 0 1-.187.027 1 1 0 0 1-.15.006l-.196-.008.19 1.037.262-.047.035-.07c.006-.011.023-.035.073-.064a.7.7 0 0 1 .215-.068l.181-.033-.001.003a.47.47 0 0 1-.162.201.7.7 0 0 1-.282.115.7.7 0 0 1-.362-.022.6.6 0 0 1-.271-.192.75.75 0 0 1-.149-.341.63.63 0 0 1 .25-.661 1 1 0 0 1 .431-.169l.032-.005.136-.013a1 1 0 0 1 .093.002l.068.01a.4.4 0 0 1 .122.034l.065.033.03.017.061.041.248-.045-.21-1.158-.191.104a.3.3 0 0 1-.163.04 2 2 0 0 1-.128-.001 1.6 1.6 0 0 0-.384.03 2 2 0 0 0-.858.36 1.5 1.5 0 0 0-.505.675c-.1.267-.122.563-.064.88q.063.344.234.615a1.53 1.53 0 0 0 1.013.688q.155.03.32.03.168 0 .346-.032.465-.084.771-.341.308-.26.432-.649a1.7 1.7 0 0 0 .04-.834.3.3 0 0 1-.006-.096.14.14 0 0 1 .018-.053Zm-.169.177q.075.413-.034.76-.109.345-.383.575a1.5 1.5 0 0 1-.7.308q-.321.059-.608.002a1.36 1.36 0 0 1-.91-.618 1.6 1.6 0 0 1-.212-.558 1.5 1.5 0 0 1 .056-.798q.135-.36.454-.605t.791-.33a2 2 0 0 1 .134-.02q.117-.013.216-.009.08.004.14.002a.5.5 0 0 0 .233-.059l.143.79-.032.006-.01-.007-.007-.005-.012-.007-.012-.007-.006-.004a.6.6 0 0 0-.262-.09h-.012a1 1 0 0 0-.158-.008l-.001-.001-.037.002-.114.012-.03.005h-.004l-.026.005a1.1 1.1 0 0 0-.474.193.8.8 0 0 0-.274.351.84.84 0 0 0-.037.464q.044.243.182.412a.75.75 0 0 0 .34.242.85.85 0 0 0 .442.028.8.8 0 0 0 .348-.143.6.6 0 0 0 .21-.257.55.55 0 0 0 .04-.266l-.39.071a.8.8 0 0 0-.265.087.33.33 0 0 0-.135.13l-.031.005-.126-.69q.075.003.171-.007t.2-.028l1.23-.224.007.032a.3.3 0 0 0-.042.112.5.5 0 0 0 .007.147m6.474-.403q-.022.22-.162.324t-.39.079l-.252-.026.092-.911.253.025q.248.026.365.155t.094.354M17.2 2.19l-.096-.01-.061.6.097.01q.189.018.28-.049.084-.062.1-.214.015-.155-.055-.233-.076-.084-.265-.104" clip-rule="evenodd"/><path fill="#8B7C58" fill-rule="evenodd" d="m23.093 3.17-.35 1.251-.003.001a1.45 1.45 0 0 1-.309.594.97.97 0 0 1-.526.303 1 1 0 0 1-.235.024 1.6 1.6 0 0 1-.43-.064 1.4 1.4 0 0 1-.586-.31.97.97 0 0 1-.292-.532 1.46 1.46 0 0 1 .045-.668l.35-1.251q.027-.098.038-.173a.6.6 0 0 0 .003-.113.2.2 0 0 0-.019-.058l-.03-.047-.133.734-.256-.047-.036-.061a.1.1 0 0 0-.029-.028l-.036-.015h-.003a.1.1 0 0 0-.046.01.4.4 0 0 0-.116.094 1.7 1.7 0 0 0-.186.25l-.425.669q-.15.239-.297.406a1.5 1.5 0 0 1-.313.276.94.94 0 0 1-.537.151 1.5 1.5 0 0 1-.336-.04l-.13-.039a1 1 0 0 1-.096-.038l-.111-.05.148-.823-.02.011q-.01.007-.023.012a1.54 1.54 0 0 1-.69.072l-.125-.013-.01.089a.8.8 0 0 0 .003.252q.015.06.04.081l.06.054-.027.269-1.115-.113v.018l-1.205-.038.01-.261.055-.045c.01-.008.029-.03.048-.085a1 1 0 0 0 .033-.25l.058-1.806a1 1 0 0 0-.018-.252c-.015-.056-.033-.08-.043-.088l-.052-.048.007-.261 1.205.038-.007.26-.056.046a.1.1 0 0 0-.02.026l-.026.058a1 1 0 0 0-.032.251l-.057 1.807a1 1 0 0 0 .016.254c.013.053.03.075.039.084l.025-.019c.011-.007.032-.028.055-.081a1 1 0 0 0 .05-.248l.183-1.798a1 1 0 0 0 .004-.197l-.008-.05-.008-.032-.012-.032a.1.1 0 0 0-.021-.033l-.05-.052.028-.26 1.21.123q.594.061.909.406c.213.234.302.537.265.9a1.2 1.2 0 0 1-.222.609 1 1 0 0 1-.247.231l.072.014.036.057a.13.13 0 0 0 .041.042q.027.018.064.024a.16.16 0 0 0 .085-.006.3.3 0 0 0 .11-.085q.08-.084.188-.26l.425-.67a3 3 0 0 1 .404-.52 1.1 1.1 0 0 1 .443-.276 1.1 1.1 0 0 1 .62.003l.037.01.216-.032.015.216-.004.023.04-.143 1.156.324-.068.248-.061.031c-.01.005-.033.021-.065.073a1 1 0 0 0-.092.238l-.338 1.208q-.05.178-.008.275c.016.035.049.084.159.115.112.031.166.006.198-.016q.087-.06.137-.238l.339-1.208a1 1 0 0 0 .045-.251c0-.056-.012-.082-.019-.092l-.039-.06.07-.251 1.156.324-.069.251-.065.031a.2.2 0 0 0-.064.069 1 1 0 0 0-.091.237m-7.33-1.663.023-.046a.3.3 0 0 1 .055-.065l.001-.032-.89-.029-.002.033q.06.054.088.162.03.107.023.297l-.058 1.806a1 1 0 0 1-.041.296.33.33 0 0 1-.098.156l-.001.032.891.029.001-.032a.3.3 0 0 1-.086-.162 1.1 1.1 0 0 1-.02-.298l.057-1.806q.006-.19.04-.296l.016-.045Zm1.331 2.007q.354.036.621-.063a.9.9 0 0 0 .427-.312 1.04 1.04 0 0 0 .19-.53q.05-.477-.224-.779-.274-.3-.808-.355l-1.055-.107-.004.032q.03.03.05.076a.5.5 0 0 1 .042.163q.009.095-.005.228l-.182 1.798a1 1 0 0 1-.062.292.33.33 0 0 1-.108.15l-.004.031.908.092.003-.032a.3.3 0 0 1-.089-.165 1 1 0 0 1-.005-.303l.024-.244zm3.366-.843.032.006.13-.723a.3.3 0 0 1-.133-.009l-.01-.002a1 1 0 0 0-.105-.026.9.9 0 0 0-.44.017.95.95 0 0 0-.379.24 3 3 0 0 0-.381.49l-.424.67q-.117.188-.208.284a.5.5 0 0 1-.17.125.3.3 0 0 1-.166.013.3.3 0 0 1-.12-.046.3.3 0 0 1-.09-.09l-.031-.006-.125.691q.03.014.07.028l.016.006.012.004.016.005.042.013a1 1 0 0 0 .113.025q.202.038.37.012a.8.8 0 0 0 .31-.116q.142-.09.281-.249.14-.157.283-.385l.424-.67q.115-.18.206-.274a.6.6 0 0 1 .164-.128.3.3 0 0 1 .094-.024.2.2 0 0 1 .082.011.2.2 0 0 1 .07.037q.045.035.067.071m.824 2.456q.33.093.59.038a.8.8 0 0 0 .443-.255q.181-.2.274-.53l.35-1.252q.052-.183.11-.277a.3.3 0 0 1 .13-.13l.01-.03-.856-.24-.008.032q.044.066.044.177c0 .111-.017.172-.05.294l-.339 1.208q-.065.234-.2.325-.135.092-.33.038-.193-.054-.259-.203-.066-.148 0-.38l.339-1.209a1.1 1.1 0 0 1 .109-.277.34.34 0 0 1 .126-.13l.009-.031-.855-.24-.009.031q.027.039.038.094l.001.006v.003l.002.008V2.2l.002.01a.7.7 0 0 1-.002.155 1.4 1.4 0 0 1-.043.195l-.35 1.25a1.3 1.3 0 0 0-.042.597.8.8 0 0 0 .245.448q.195.181.52.273Zm4.483-1.609-.154-.036-.06.145-.017.075.01.048a.1.1 0 0 1-.016.04.25.25 0 0 1-.118.08l-.661.26-.32-.676q-.035-.075-.024-.121a.08.08 0 0 1 .042-.056l.05-.049.08-.192-1.032-.418-.1.247.04.067c.005.01.016.038.01.106a1 1 0 0 1-.074.261l-.667 1.646a1 1 0 0 1-.118.223c-.036.045-.062.058-.074.062l-.068.023-.097.243 1.108.448.099-.24-.033-.065a.2.2 0 0 1-.008-.094 1 1 0 0 1 .073-.244l.313-.773.281.567.042.059.111.045.648-.245-.318.785a1 1 0 0 1-.064.139 1 1 0 0 1-.053.086c-.035.044-.06.058-.072.061l-.067.023-.1.242 1.11.45.1-.242-.034-.064c-.006-.012-.015-.04-.01-.096a1 1 0 0 1 .072-.243l.666-1.645q.034-.084.07-.147a.7.7 0 0 1 .092-.124l.025-.021.028-.016.072-.022.1-.245zm.666.474a.2.2 0 0 0-.078.04.6.6 0 0 0-.083.082 1 1 0 0 0-.075.112 2 2 0 0 0-.079.166l-.666 1.645a1 1 0 0 0-.082.287.33.33 0 0 0 .026.182l-.012.03-.819-.332.012-.03a.3.3 0 0 0 .144-.113 1 1 0 0 0 .07-.11q.034-.066.07-.153l.452-1.117-.925.35-.015-.006-.436-.878-.445 1.096a1.2 1.2 0 0 0-.083.286.3.3 0 0 0 .024.182l-.012.03-.819-.332.012-.03a.33.33 0 0 0 .146-.113 1 1 0 0 0 .142-.263l.667-1.645a1.1 1.1 0 0 0 .084-.305.33.33 0 0 0-.032-.2l.013-.03.74.3-.01.022a.24.24 0 0 0-.11.154.35.35 0 0 0 .033.22l.386.81.797-.313a.4.4 0 0 0 .192-.14.3.3 0 0 0 .04-.101l.002-.017v-.042q0-.015-.004-.03l.009-.022.736.299z" clip-rule="evenodd"/><path fill="#7F7559" d="m2.004 9.72.176.542h.571l-.462.336.177.543-.462-.335-.462.335.176-.543-.462-.336h.571zm24.966 0 .176.542h.571l-.462.336.177.543-.462-.335-.462.335.176-.543-.462-.336h.571zM2.004 27.27l.176.543h.571l-.462.336.177.543-.462-.336-.462.336.176-.543-.462-.336h.571zm24.966 0 .176.543h.571l-.462.336.177.543-.462-.336-.462.336.176-.543-.462-.336h.571zm1.053 2.267-.314.181a26.46 26.46 0 0 1-26.445.009l-.313-.18v.723a27.09 27.09 0 0 0 27.072-.009z"/><circle cx="9.548" cy="35.301" r=".253" fill="#E2DAC4"/><circle cx="19.415" cy="35.301" r=".253" fill="#E2DAC4"/><path fill="#E2DAC4" d="M10.704 35.78h.43a.3.3 0 0 0 .103-.018.1.1 0 0 0 .037-.027.1.1 0 0 0 .018-.025h.012v.222l-.029-.007-.026-.003-.064-.002h-.69v-.014a.1.1 0 0 0 .043-.054.3.3 0 0 0 .017-.107v-.847a.3.3 0 0 0-.018-.108.1.1 0 0 0-.043-.053v-.014h.68a.6.6 0 0 0 .12-.012v.222h-.014a.1.1 0 0 0-.055-.052l-.036-.012a.3.3 0 0 0-.065-.006h-.42v.31h.222q.033 0 .055-.003l.03-.008a.1.1 0 0 0 .042-.032h.012v.226h-.012a.1.1 0 0 0-.042-.031.2.2 0 0 0-.085-.012h-.222zm1.199-.863h-.013a.1.1 0 0 0-.031-.028.2.2 0 0 0-.053-.026l-.009-.002-.014-.003a.2.2 0 0 0-.047-.005.2.2 0 0 0-.142.045.14.14 0 0 0-.054.115q0 .053.03.095.03.04.102.089l.09.058a.7.7 0 0 1 .125.105.4.4 0 0 1 .075.11q.024.06.024.13a.3.3 0 0 1-.106.238.44.44 0 0 1-.298.09 1 1 0 0 1-.103-.006l-.083-.012v-.195h.012l.028.028.031.019.005.003.024.01a.3.3 0 0 0 .092.016.27.27 0 0 0 .174-.052.17.17 0 0 0 .064-.138.2.2 0 0 0-.041-.12.3.3 0 0 0-.036-.04 1 1 0 0 0-.1-.076l-.088-.061-.067-.05a.3.3 0 0 1-.114-.24q0-.135.1-.217a.42.42 0 0 1 .275-.083h.02l.037.004h.022l.004.001.036-.002.029-.006zm.247-.054h.195v.892a.3.3 0 0 1-.015.1.1.1 0 0 1-.042.053v.012h.264v-.012a.1.1 0 0 1-.044-.052.3.3 0 0 1-.013-.1v-.893h.196a.2.2 0 0 1 .1.018.1.1 0 0 1 .056.052h.014v-.222a.6.6 0 0 1-.12.012h-.642a.6.6 0 0 1-.12-.012v.222h.014a.1.1 0 0 1 .054-.052.3.3 0 0 1 .102-.018Zm1.27-.013.002.046v.86a.3.3 0 0 1-.016.1.1.1 0 0 1-.04.052v.012h.259v-.012a.1.1 0 0 1-.04-.052.3.3 0 0 1-.014-.1v-.76l.404.395h.007l.405-.399v.763a.3.3 0 0 1-.007.073l-.01.028a.1.1 0 0 1-.039.052v.012h.258v-.012a.1.1 0 0 1-.034-.04l-.003-.007-.002-.005a.3.3 0 0 1-.014-.1v-.86a.4.4 0 0 1 .004-.06.2.2 0 0 1 .011-.044.1.1 0 0 1 .042-.057v-.012h-.229v.008a.07.07 0 0 1 .012.056.13.13 0 0 1-.04.066l-.354.354-.367-.36a.12.12 0 0 1-.037-.062.06.06 0 0 1 .014-.053v-.01h-.23v.013a.1.1 0 0 1 .044.057.2.2 0 0 1 .014.058m1.321-.023-.01-.035a.1.1 0 0 0-.043-.057v-.012h.229v.008a.1.1 0 0 0-.014.029v.025a.12.12 0 0 0 .037.063l.367.36.354-.355.006-.006.023-.03q.01-.015.011-.03a.07.07 0 0 0-.012-.056v-.008h.229v.012a.1.1 0 0 0-.026.027.2.2 0 0 0-.024.056.4.4 0 0 0-.007.078v.86q0 .065.014.1a.1.1 0 0 0 .04.052v.012h-.259v-.012a.1.1 0 0 0 .04-.052.3.3 0 0 0 .015-.1v-.764l-.404.399H15.3l-.404-.394v.758a.3.3 0 0 0 .014.1q.015.035.04.053v.012h-.259v-.012a.1.1 0 0 0 .022-.02l.002-.002.002-.004.004-.005.01-.021a.3.3 0 0 0 .016-.1v-.86a.4.4 0 0 0-.006-.07Zm2.266 1.056a.3.3 0 0 1-.042-.048l-.369-.545.326-.486a.2.2 0 0 1 .043-.045.2.2 0 0 1 .038-.024v-.012h-.272v.012q.018.007.026.03.01.02-.012.055l-.244.367-.25-.37q-.021-.033-.01-.054a.05.05 0 0 1 .027-.028v-.012h-.285v.012q.004 0 .008.003l.025.015.006.005a.2.2 0 0 1 .04.041l.335.495-.36.529a.4.4 0 0 1-.048.057l-.002.002-.038.026v.012h.277v-.012a.07.07 0 0 1-.03-.037l-.001-.013.002-.014a.1.1 0 0 1 .02-.04l.275-.402.28.409q.022.034.015.059a.06.06 0 0 1-.028.038v.012h.286v-.012a.2.2 0 0 1-.038-.025m.127-.995-.003-.054a.2.2 0 0 0-.01-.047.1.1 0 0 0-.042-.052v-.012h.258v.012a.1.1 0 0 0-.04.052.2.2 0 0 0-.01.043.4.4 0 0 0-.003.058v.867q0 .067.013.1.015.036.04.053v.012h-.258v-.012a.1.1 0 0 0 .034-.037l.004-.008.002-.004.001-.003a.3.3 0 0 0 .014-.1zm1.272.97.024.026q.021.017.038.024v.012h-.286v-.012a.06.06 0 0 0 .028-.038l.002-.011v-.008l-.001-.002v-.002a.1.1 0 0 0-.016-.036l-.28-.41-.274.403a.2.2 0 0 0-.02.036.05.05 0 0 0 0 .031q.004.015.013.024.007.008.016.013v.012h-.278v-.012l.015-.01.01-.006a.3.3 0 0 0 .064-.069l.36-.53-.336-.494-.017-.022-.023-.02a.2.2 0 0 0-.038-.022v-.012h.284v.012a.05.05 0 0 0-.027.028q-.01.021.01.053l.25.37.244-.366a.1.1 0 0 0 .015-.035v-.012l-.003-.009a.05.05 0 0 0-.026-.029v-.012h.273v.012a.2.2 0 0 0-.038.024.2.2 0 0 0-.044.045l-.325.486.369.545.008.011.005.007zm-5.578.048a.1.1 0 0 1-.03-.076.1.1 0 0 1 .03-.075.1.1 0 0 1 .078-.031q.045 0 .074.031.016.016.024.034a.1.1 0 0 1 0 .08.1.1 0 0 1-.024.037.1.1 0 0 1-.025.02.1.1 0 0 1-.06.01l-.015-.001-.028-.01a.1.1 0 0 1-.024-.019"/><path fill="#243B2E" d="m7.216 10.789-2.16-2.574q.152-.064.305-.124l2.067 2.462a4 4 0 0 0-.212.236m1.447-1.365L7.469 7.357l.31-.09L8.872 9.16a3 3 0 0 0-.197.248zm1.607-1.378-.46-1.263.312-.059.422 1.161a1 1 0 0 0-.275.162Zm2.024-.464-.2-1.132.314-.029.169.956c-.11.063-.198.14-.265.208zm2.058-.216V6.334h.314v.963q-.158.02-.314.069m2.072.107.184-1.048q.158.014.314.03l-.197 1.116a1 1 0 0 0-.301-.098m1.888.855.581-1.596.312.06-.633 1.74a9 9 0 0 0-.26-.204m1.539 1.342 1.38-2.392.31.09-1.447 2.508zm1.367 1.326 2.427-2.892.305.125-2.565 3.057a2.4 2.4 0 0 0-.167-.29m3.162-3.28v.001l-.29-.144h.002l.289.143ZM.95 8.065v-.41l5.728 4.805a1.3 1.3 0 0 0 .123.513zm0 3.525v-.362L6.449 14.4q-.062.15-.104.303zm0 2.879v-.334l4.898 1.783q-.088.134-.166.273zm0 2.536v-.318l4.48.79a3 3 0 0 1-.105.3zm0 2.388v-.313h3.946a2 2 0 0 0-.01.314H.951Zm0 2.394v-.319l4.298-.758c-.004.1-.006.208.002.319zm0 2.551v-.334L5.8 22.24q.024.18.045.317zm0 2.907v-.362l5.442-3.142.018.016.015.012-.059.35zm.612 2.651L6.18 26.02a1 1 0 0 1-.068.186c-.083.177-.231.374-.388.583l-.046.061-3.823 3.208-.294-.162Zm2.696 1.314.802-.956.326.099-.824.982zm2.616.937.701-1.215q.17.05.305.099l-.697 1.207-.31-.09Zm2.54.627.17-.463.33.01-.187.512zm2.484.363.151-.855c.13-.008.242-.018.324-.029l-.161.913-.314-.03Zm15.535-3.261-5.436-4.56a8 8 0 0 0-.026.387l5.167 4.336q.148-.08.294-.163Zm-2.688 1.315-.942-1.122-.34.083.978 1.165zm-2.61.941-.863-1.495-.065.011-.263.047.882 1.529q.154-.044.31-.092Zm-2.535.631-.597-1.638-.055.022-.019.087-.002.011a2 2 0 0 1-.091.337l.451 1.241zm-2.482.368-.139-.788q-.13.003-.264.003h-.054l.144.815zm-2.452.131V32.23l-.139-.022a1 1 0 0 1-.175-.047v1.102zm13.357-6.404v.362l-5.87-3.389a10 10 0 0 0 .024-.348zm0-2.87v.334l-5.533-2.014a7 7 0 0 0 .012-.24l.002-.043.001-.045zm0-2.528v.319l-4.959-.875q.014-.16.005-.317zm0-2.38v.314H23.36q.014-.164.006-.314zm0-2.386v.319l-4.995.88a7 7 0 0 1-.12-.297zm0-2.544v.335l-5.32 1.936a2 2 0 0 0-.15-.28l5.47-1.99Zm0-2.897v.362l-6.062 3.5-.038-.146-.043-.17zm0-3.561v.41l-6.703 5.624-.019-.023-.047-.06a15 15 0 0 1 .153-.4l6.616-5.55Z"/><path fill="#243B2E" d="M13.072 7.677c.51-.068.984.42 1.042.42.026 0 .277-.265.416-.315a1.2 1.2 0 0 1 .938.035c.048.022.179.205.208.21.04.006.49-.18.764-.14.287.041.4.308.556.35.332.09.436-.052.833.21.572.376 1.2.98 1.702 1.435.852.775 1.835 1.277 1.684 2.644-.028.252-.397 1.039-.382 1.155.006.041.425.549.487.665.213.402.233.81.381 1.156.168.39.628.809.73 1.26.04.18-.003.53.034.665.225.81.707 1.265.452 2.24-.022.085-.238.391-.243.421-.027.155.053.55 0 .805-.084.401-.497.697-.521.77-.04.12-.02.57-.07.77-.055.226-.191.45-.277.666 0 1.176-.397 2.742-.119 3.323.396.618.987.909 1.195 2.104l2.17.262.192.228c-.134.004-.177.142-.26.192-.282.168-2.615.686-3.126.806-.472.11-3.052.482-3.213.787-.152.29-.03.77-.573.928-.586.171-2.73.083-3.368-.035-.645-.12-.425-1.062-.556-1.12h-.972c-.092.494-.125 1.047-.73 1.155-.428.076-2.665.104-3.09.035-.602-.097-.556-.685-.747-.963-.223-.325-2.213-.71-2.691-.857-.39-.12-1.473-.431-1.771-.596-.145-.08-.268-.22-.226-.402.07-.303 1.268-.224 1.545-.298.13-.058.133-.585.191-.753.19-.546.74-1.043.973-1.54.24-.511.12-.951.173-1.506.02-.192.23-1.266.209-1.33-.007-.02-.263-.198-.313-.28a4 4 0 0 1-.243-.525c-.065-.203-.143-1.007-.173-1.05-.045-.063-.31-.11-.417-.42-.136-.395.013-.865-.07-1.156-.006-.023-.233-.25-.277-.385-.283-.865.33-1.537.486-2.276.056-.264-.013-.518.07-.805.094-.329.462-.746.59-1.05s.173-.722.312-1.05c.098-.232.629-1.013.625-1.156-.002-.109-.316-.628-.347-.84-.194-1.338.85-1.882 1.684-2.644.174-.158.28-.405.486-.56.126-.094.372-.144.452-.21.21-.174.737-.8.938-.84.149-.03.518.04.625 0 .057-.022.098-.265.416-.315.213-.034.647.095.73.07.055-.017.201-.313.486-.35"/><path fill="#E4D6AF" fill-rule="evenodd" d="M14.079 8.307c-.244-.332-.623-.544-1.042-.49l.903 1.925a8 8 0 0 1-.29-.45c-.432-.7-.882-1.428-1.846-1.143a.6.6 0 0 0 .205.084c.13.036.236.065.108.196.558.41 1.546 1.228 1.84 1.856l.015.028c.029.055.066.126.003.164-.52-.797-1.94-2.187-2.952-1.995-.06.011-.282.105-.296.192 1.052.07 2.085.648 2.779 1.436.077.087.139.19.2.292.172.286.334.555.79.39.032-.011.112-.17.188-.32.057-.112.111-.219.141-.257.627-.79 1.81-1.481 2.813-1.576-.72-.62-1.882.403-2.413.928l-.015.015c-.28.277-.564.558-.715.93-.23.012.358-.806.4-.857.345-.43.875-.863 1.346-1.248q.187-.152.355-.293c-.49-.312-1.094.05-1.423.455-.034.042-.101.161-.184.308-.214.38-.533.946-.667.865-.047-.028.216-.525.467-1 .224-.423.438-.828.418-.873-.38-.168-.667.066-.938.289a4 4 0 0 1-.19.149m.798-.175c.036.011.03.13-.034.105-.053-.02.023-.109.034-.105m1.32 0c.159.13.067.146-.075.17l-.029.005zm-.312.21-.903.98a2.47 2.47 0 0 1 .903-.98m-1.702 1.96c.159-.07.157.328.07.35-.134-.01-.145-.316-.07-.35m-.417-1.715c.088-.042.195.348.174.42-.105.058-.172-.354-.174-.42m.973-.175-.278.56c-.102-.049.194-.516.278-.56m-1.737.245.336.44-.082-.08c-.13-.122-.34-.319-.254-.36m.348.456-.012-.015zm.855.197-.022-.127c-.028 0-.053.525.035.56.04-.145.013-.29-.013-.433m-.473-1.003c.104-.007.158.175.069.175-.021 0-.117-.15-.07-.175Zm.416 1.716c.062-.038.1.186.035.175zm.278-1.68c.043.064.014.144-.035.07-.017-.027-.004-.037.013-.05z" clip-rule="evenodd"/><path fill="#E4D6AF" d="M18.315 9.077c-.166-.302-.751-.28-1.041-.245-.668.082-1.772.793-2.206 1.313-.042.051-.587.787-.26.613.686-.989 1.955-1.946 3.212-1.733-1.135.037-2.318.63-2.778 1.715l.087.053c.574-1.117 1.788-1.632 2.986-1.716m-7.709 4.376L8.99 15.852l1.58-2.224-.781 1.523.364-.437c.068.072-.081.282-.161.395l-.03.042c-.415.615-.976 1.184-1.542 1.758-.686.696-1.38 1.4-1.826 2.199-.369.66-.467 1.145-.504 1.908-.49-2.03.938-3.628 2.237-5.081.28-.314.554-.62.802-.924.09-.11.178-.235.267-.36.192-.274.39-.555.636-.725-.415.803-1.064 1.536-1.716 2.272-.89 1.005-1.786 2.016-2.104 3.225l-.006.02c-.017.056-.057.188.006.19.317-1.197 1.104-2.102 1.886-3 .245-.282.49-.562.718-.851.226-.284.435-.582.643-.88.356-.506.711-1.012 1.146-1.449Zm6.32 5.707c.859.567 1.408 1.911 1.233 2.923-.126.728-.78 1.112-.625.07l.07-.035.173.105c.01-.368-.097-.707-.206-1.048a9 9 0 0 1-.107-.352l-.034.28-.59-1.435.45.315-.52-.63c.286.057.47.37.631.644.058.099.113.191.168.266l.017.027c.027.047.064.11.087.008zm-1.58 7.124-.017-1.697c-.33.32-.264.692-.196 1.07.058.32.116.643-.064.943-.03-.076-.038-.335-.046-.616-.012-.41-.026-.866-.11-.872-.22.316-.15.719-.082 1.111.03.178.06.353.064.517.003.188-.019.386-.04.586-.036.313-.071.632-.012.936.414-.682.733-1.526.816-2.328.005-.053.037-1.163-.08-1.233a.2.2 0 0 0 .045-.062c.022-.045-.018-.456-.052-.473-.124.081-.104.503-.024.54a.3.3 0 0 0-.063.108c-.028.069-.015.301-.002.553.013.256.028.53.002.672-.004.024-.062.294-.139.245m-3.757-6.447.006-.012a.5.5 0 0 1 .079-.057c.054-.035.109-.07.13-.135-.112.001-.145.068-.183.143l-.026.05-.018.017c-.142.136-.257.244-.364.42l-.416 1.085c.054-.834.596-1.518 1.146-2.1-.645.362-.925.973-1.198 1.628.114-.634.533-1.273 1.059-1.664-.125-.105-.43.186-.521.28-.66.681-1.08 2.266-.59 3.117.428.744.648-.365.295-.648l-.174.245.1-.357c.189-.687.387-1.409.82-1.971l-.225.157c-.03-.014.053-.154.08-.198m4.938 5.047a4.5 4.5 0 0 0-.122-1.173l-.208 1.681-.017-1.488c-.073.01-.168.343-.174.385-.02.154-.012.316-.003.478a2.3 2.3 0 0 1-.015.555c-.034 0-.059-.36-.08-.669a4 4 0 0 0-.041-.434c-.014-.037-.11-.126-.139-.035l.226 3.133c.023.015.278-.424.295-.472.113-.328.263-1.582.278-1.96Zm-4.879 2.433c-.83-1.249-.534-2.883-.278-4.27.164.306.103.664.043 1.018-.033.195-.066.39-.06.574.078-.108.096-.256.114-.403.013-.104.025-.208.06-.297.012-.033.194-.393.242-.245-.236 1.204-.212 2.408-.121 3.623m1.314-2.104c.012-.384.024-.769-.03-1.152q-.03.195-.065.406c-.097.585-.207 1.244-.16 1.783.06.68.451 1.461.787 2.13q.108.212.203.408l-.06-.31c-.252-1.316-.495-2.58-.479-3.944l-.069 1.996c-.07.067-.102-.194-.104-.21-.046-.368-.035-.738-.023-1.107"/><path fill="#E4D6AF" d="M18.489 22.1c.753-1.225.006-3.088-1.215-3.71l.99 1.383-.07.035c-.21-.408-.553-.94-1.007-1.086.612.634 1.115 1.483 1.18 2.381l.14-.245zm-9.006-1.55c.1-.234.335-.782.116-.725-.07.019-.586 1.095-.643 1.243-.396 1.045-.526 2.182-.225 3.273.134-1.25.366-2.486.712-3.693zm7.061-.025c.26.16.314.448.368.728.029.152.058.302.118.428.039-.022-.004-.205-.042-.368-.025-.108-.048-.207-.044-.245q.001-.005.019-.02c.044-.039.144-.127.085-.26.46.29-.1 2.574-.365 2.573-.2 0-.104-.8-.047-1.263.016-.139.03-.247.03-.295.113.126.08.358.053.552l-.018.148c.105-.087.104-.356.104-.498v-.027c0-.43-.115-.878-.222-1.3zm-4.549.035-.156.823c-.105.075-.102.227-.099.387.002.098.004.2-.019.287l.36-1.024a4 4 0 0 1-.088.515c-.076.345-.152.69-.033 1.043l.07-.7c.076-.015.128 1.498.035 1.54-.8-.751-.702-2.008-.07-2.87Zm7.535-3.71c.84.69 2.797 2.503 2.588 3.693-.005.026-.06.193-.087.192-.154-1.217-.918-2.069-1.683-2.922-.283-.315-.565-.63-.817-.964Zm-10.765.104c.079.01.061.032.038.06l-.02.028c-.187.344-.52.725-.867 1.122-.36.41-.733.838-.974 1.259-.26.455-.427.878-.573 1.383-.144-1.229.739-2.12 1.576-2.964.295-.297.584-.589.82-.888m1.563-8.087c.184-.038.699.005.903.035 1.042.153 1.946.993 2.518 1.838-.061.225-.391-.237-.548-.457a2 2 0 0 0-.077-.103c-.782-.806-1.991-1.386-3.108-1.068.002-.09.26-.234.312-.245m5.626 12.569c.211.25.19 2.11.035 2.17a.33.33 0 0 1-.191-.122c-.097-.128-.16-1.15-.174-1.4l-.003-.04c-.007-.105-.019-.258.072-.31l.174 1.435c.008-.057.005-.236.001-.458-.009-.519-.021-1.274.086-1.275m-7.258-6.932-2.344 1.978c.226-.81.868-1.147 1.523-1.492.282-.148.566-.297.82-.486Zm11.321.21c.86.386 1.84.916 2.101 1.908zm-7.432 6.722c.144.137.02.368-.031.465a.2.2 0 0 0-.02.043c0 .013.016.015.033.017s.035.004.036.018c.01.155.04.25.078.366q.02.062.043.141c.07-.095.062-.233.054-.37-.009-.164-.018-.327.103-.418a5 5 0 0 0-.003.734c.014.352.028.713-.032.947-.063.244-.204.17-.278-.035-.171-.476-.13-1.42.018-1.908Z"/><path fill="#E4D6AF" d="M10.259 9.077c.898-.021 2.166.45 2.726 1.173.062.08.449.642.208.56-.023-.008-.139-.152-.271-.316h-.001c-.152-.189-.325-.403-.405-.472-.329-.282-.838-.536-1.25-.665a3 3 0 0 0-.376-.075c-.245-.038-.496-.077-.631-.205m8.716.455c.043-.005.101.061.153.12a.5.5 0 0 0 .073.073l-.018.087c-1.23-.415-2.502.072-3.125 1.226-.07-.101.116-.32.274-.506.124-.146.23-.271.177-.3a2.3 2.3 0 0 0-.642.718l-.07-.035c.442-.732 1.286-1.273 2.136-1.348.23-.02.422.007.616.034.104.014.21.029.322.036.007 0 .028-.024.05-.05s.045-.054.054-.055"/><path fill="#E4D6AF" d="M9.842 9.357c1.061-.17 2.604.52 3.177 1.453.003.034-.04.05-.086.018a1 1 0 0 1-.125-.163c-.118-.169-.28-.4-.362-.362l.244.595c-.544-1.154-1.835-1.531-3.022-1.436-.032-.057.154-.102.174-.105"/><path fill="#E4D6AF" d="M9.53 9.602c1.088-.173 2.664.29 3.038 1.453-.111-.105-.196-.223-.282-.34-.104-.144-.208-.288-.36-.413-.683-.556-1.884-.753-2.71-.455-.15-.098.292-.241.313-.245Zm8.75.175c.449-.025 1.295.124 1.39.665-.754-.709-1.843-.694-2.674-.14l-.816.788a2.51 2.51 0 0 1 2.1-1.313m2.327 4.096c.262.028.873 1.427.8 1.47l-1.234-1.242c.265-.087.475.198.669.459.098.133.192.26.286.329l-.52-1.016Z"/><path fill="#E4D6AF" d="M17.794 9.287c.283-.032.67-.011.938.07.044.056-.323.045-.587.038a3 3 0 0 0-.247-.003c-.491.058-1.395.477-1.77.805-.104.09-.177.197-.247.3-.087.125-.168.243-.292.313.161-.743 1.535-1.447 2.205-1.523m-8.021.525c1.068-.104 2.02.412 2.622 1.278-.007.21-.352-.253-.496-.446l-.06-.08c-.82-.782-2.266-.907-3.108-.087.085-.394.678-.63 1.042-.665"/><path fill="#E4D6AF" d="M9.946 10.022c.265-.013.843.083 1.077.21.163.089.94 1.021.92 1.138-.032.187-.296-.25-.422-.458l-.064-.102c-.694-.803-1.41-.8-2.38-.473.179-.183.626-.303.87-.315Zm3.334 14.81c.202.393.211.82.22 1.25.005.22.01.44.04.658l-.086.122zm4.653-14.81c.405-.075 1.145.028 1.442.333-1.217-.593-2.152-.08-2.761 1.033.004-.453.941-1.296 1.32-1.366Zm-1.215 13.724c.18.618.056 1.254-.104 1.856-.046-.18-.085-1.904.104-1.856m0-10.258c.227-.115.286.455-.035.596-.582.255-.637-.479-.469-.438.046.03.072.088.097.146.037.084.073.165.164.152.111-.026.177-.249.213-.373a.3.3 0 0 1 .03-.083m-4.828.07c.081-.013.113.083.146.183.03.091.061.186.133.203.14.032.183-.073.221-.165.03-.072.057-.136.126-.116.265.406-.23.597-.556.386-.139-.091-.235-.463-.07-.49Z"/><path fill="#E4D6AF" fill-rule="evenodd" d="m10.397 11.502.053.026c.023.01.09.049.178.098l.002.002c.232.131.596.339.618.302-.077-.295-.307-.523-.52-.717-1.513-1.375-4.31-.267-3.056 1.838.22.369.34.327.48.28.077-.027.16-.055.266-.018l.035.07-.13.098-.252.007c-.19.103 1.284.635 1.39.49l-.21-.14.643-.017a2 2 0 0 0-.253-.023c-.196-.011-.424-.024-.528-.1-.163-.117.053-.077.289-.033.213.04.442.083.423.016-.335-.023-.554-.181-.782-.346a2.4 2.4 0 0 0-.468-.284c.547.08.482.045.305-.047-.12-.062-.292-.152-.358-.25l.504.087-.695-.35c.021-.007.102.015.2.04.197.052.464.123.46.03l-.729-.28h.66l-.695-.316.73.035-.695-.28.73.07c-.03-.038-.145-.087-.266-.14-.17-.072-.352-.15-.325-.21l.642.228c-.161-.155-.148-.242-.136-.32.013-.084.024-.157-.194-.293.055-.102.41.269.47.333.459.042.871.28 1.284.519.25.145.502.29.764.391.189-.098-.375-.389-.828-.621-.278-.143-.514-.264-.509-.307.02-.102.356.061.503.133Zm.167-.246.025-.008.208.262c-.02.045-.286-.07-.312-.087a.3.3 0 0 0-.05-.025c-.028-.011-.051-.02-.055-.045v-.018a.8.8 0 0 1 .184-.079m-2.736 1.672.434.228c-.285.204-.388.095-.434-.228m1.458-1.96.504.332c-.028.079-.758-.256-.504-.332m-1.701 1.295c.015-.011.322.23.173.28-.178.06-.245-.224-.173-.28m-.07-.245c.07-.053.252.113.26.193-.024.081-.4-.085-.26-.193m.14.63c.012-.007.262.088.26.123-.12.154-.371-.06-.26-.123m.763-1.505.33.227c-.01.02-.438-.061-.33-.227m-.347.035c.054-.01.303.24.173.245-.064.003-.2-.17-.173-.245m1.831-.084q.05.028.096.049c.019.008.053.01.09.014.093.008.208.017.153.108-.022.038-.136-.027-.2-.065q-.032-.018-.043-.022l-.075-.023a.6.6 0 0 1-.272-.135c.09-.016.172.03.251.074m-2.283.68c.043-.002.104.055.122.087.116.211-.305-.081-.122-.088Zm0-.246c.037-.025.132.024.122.088-.089.072-.201-.034-.122-.088m2.466-.63a.6.6 0 0 1 .121.087c-.03.08-.205-.055-.121-.087m-2.292.35c.12-.015.084.132-.035.07-.034-.018.027-.07.035-.07m.764-.35c.006-.002.1.081.07.105-.052.02-.123-.09-.07-.105m.677 7.597.062-.092c.346-.513.702-1.04 1.188-1.431-.028.248-.235.435-.435.616-.094.086-.187.17-.26.26l-.036.044a8 8 0 0 0-.484.638c-.82 1.27-1.386 2.915-1.233 4.446l.052-.963c-.067-1.024 1.646-4.4 2.483-4.744l.03-.012c.064-.029.103-.046.092.065-1 1.199-1.939 2.56-2.275 4.114.441-1.48 1.297-2.792 2.327-3.921.228.048-.458.805-.538.892-.014.107.164-.052.224-.106l.018-.016c-.004.006-.001.023 0 .041.003.02.006.04 0 .046-.06.072-.148.144-.242.22-.186.152-.393.32-.435.533.179-.276 1.431-1.105 1.667-1.015.137.052-.078.15-.23.22-.052.025-.097.046-.117.06-.3.208-.68.516-.92.788-.04.044-.128.19-.213.328-.087.143-.17.278-.187.284-.056.021-.069-.014-.08-.045-.016-.047-.028-.082-.18.098-.353.418-.786 1.591-.903 2.135-.234 1.088-.298 2.34-.017 3.414-1.57-2.159-.72-4.884.642-6.897m-1.128 4.762c.046.063.026.198.01.301l-.01.084-.052-.158zm.208-.316.07-.42-.087.158.017.263Zm-.07 1.016c.035-.007.085.132.036.175-.022-.026-.086-.165-.035-.175Z" clip-rule="evenodd"/><path fill="#E4D6AF" d="M10.45 18.285a1 1 0 0 0 .076-.117c.054-.093.112-.191.219-.233-.008.124-.17.252-.27.33zm-.816-5.007c.1-.013.84.056.816.193-.091.166-1.12.029-1.077-.105.064-.033.197-.08.26-.088Z"/><path fill="#E4D6AF" fill-rule="evenodd" d="M19.2 18.495c-.139-.21-.309-.405-.478-.601-.294-.338-.587-.675-.72-1.08.204.29.429.561.654.833.21.254.421.509.614.778.99 1.38 1.573 3.012 1.459 4.744-.052.78-.258 1.709-.886 2.223.495-1.703.207-3.88-.607-5.444l-.002-.003c-.011-.022-.091-.18-.103-.067.475 1.091.886 2.253.834 3.466l-.174 1.015-.032-.362a16 16 0 0 0-.176-1.459c-.135-.727-.375-1.53-.59-2.24.163-.124.105-.13.024-.137-.048-.004-.103-.01-.129-.038-.027-.032-.05-.13-.072-.23a1 1 0 0 0-.067-.226 4.7 4.7 0 0 0-.885-1.102 2 2 0 0 0-.135-.09c-.207-.132-.547-.348-.386-.4.063 0 .123.03.179.056l.03.014c.097.044.387.275.643.478.21.169.398.318.433.327.023.006.073.007.087-.018-.1-.105-.19-.22-.28-.334l-.137-.173a5 5 0 0 0-.144-.16l-.005-.006c-.231-.25-.607-.659-.58-.797l.052-.053q.144.162.289.321l.003.003c.164.182.329.363.49.552.698.82 1.305 1.728 1.614 2.765l-.087-.437c.041-.473-.926-1.688-1.578-2.507-.32-.402-.565-.71-.575-.784-.008-.064-.003-.162.087-.158.132.007 1.504 1.836 1.65 2.083.344.587.715 1.57.833 2.241.09.513.089 1.057.087 1.58v.083c.222-1.615-.35-3.328-1.233-4.656Zm1.095 5.287c.009.182-.034.442-.139.595.017-.19.059-.423.139-.595m-.028-.82c.018-.13.043-.31-.041-.405l-.007.048c-.018.131-.043.311.041.407zm.167.33c.096.025.051.237.035.31v.005c-.096-.026-.052-.238-.036-.311v-.004Zm-2.119-4.377c.125-.019.159.11.035.07-.01-.003-.069-.052-.035-.07" clip-rule="evenodd"/><path fill="#E4D6AF" d="M18.072 10.197c.035-.003.178-.01.191.018-.682.178-1.04.723-1.405 1.276l-.001.002c.038-.478.757-1.246 1.215-1.296M8.28 14.049l-.608.612-.66.595c.272-.468.742-.817 1.172-1.137zm-.313-.176c.031-.004.082.03.086.053.006.029-.155.184-.344.366-.248.238-.544.523-.576.632-.13-.216.766-1.04.834-1.05Zm2.223-1.26c.097-.02.195.008.29.034.055.015.108.03.16.036h-.208c.049.123.146.104.25.084s.214-.042.289.074c-.212.095-.44.046-.664-.002a2 2 0 0 0-.291-.05c-.015-.06.143-.17.173-.176Zm8.542.665c.126-.01.353-.027.434.053 0 .061-.855.318-.972.14-.003-.062.476-.187.538-.193m-7.05 7.212c.154.003-.199.965-.312 1.086 0-.387.087-.772.312-1.085Zm4.55.84c.128.347.172.68.07 1.05-.107-.298-.24-.758-.07-1.05m-5.487-6.056.625 1.47c-.101.047-.614-1.111-.643-1.242l-.005-.023c-.015-.066-.039-.168.023-.205m2.396-.455-.434.682-.573.683c.294-.482.637-.94 1.007-1.365m-2.535-4.552c.213-.029 1.03.91 1.094 1.138q.007.024.015.04c.014.031.02.045-.033.083l-.081-.146c-.104-.188-.215-.39-.353-.537a2 2 0 0 0-.36-.266c-.122-.076-.233-.147-.282-.207q-.017-.02-.03-.03c-.025-.023-.028-.026.03-.075m.521-.035c.273.11.528.277.712.508.027.034.389.575.226.578-.215-.464-.534-.787-.938-1.086m6.737 5.217c.061.02-.19.61-.366 1.02a5 5 0 0 0-.155.38c-.07-.147.45-1.424.521-1.4m-9.342-1.261c.033 0 .08.028.087.053.02.081-.797.584-.938.63.067-.12.797-.68.851-.683m3.82 7.108-.07 1.085c-.105-.313-.046-.78.07-1.085m-1.979-9.173c1.103.203.573.488-.087.052zM8.904 25.952c.127-.06.372.267.278.385-.172-.167-.177-.16-.197-.13-.01.015-.023.036-.063.043-.103.017-.098-.26-.018-.298m1.007-13.129.886.263c-.09.064-1.093-.124-.886-.263m10.037 1.261.59.665c-.244-.133-.527-.376-.59-.665m-1.771-1.751h.027c.023-.003.045-.005.06.017.072.124-.602.27-.695.245-.044-.077.574-.264.608-.262m-7.884 0c.057-.008.686.182.712.298-.106.041-.722-.196-.746-.228-.036-.018.028-.07.034-.07m8.127.595a1 1 0 0 1 .146 0q.066.003.131 0c-.227.135-.61.197-.885.158a2.5 2.5 0 0 1 .607-.158Zm-.07-.21.028-.002c.075-.005.154-.01.198.055-.001.042-.737.176-.834.105l.072-.023c.164-.052.407-.128.536-.135m-1.458 3.956.173.385c.014.005.04-.021.067-.05.076-.079.167-.174.072.33-.063-.047-.42-.64-.312-.665m1.285-4.551.015-.001c.028-.003.055-.005.071.018.016.042-.69.342-.798.28.144-.09.564-.29.712-.297m-1.042-1.751-.695.84.156-.332zm-1.737-.175c.017.094-.214.458-.26.508l-.016.017c-.037.043-.073.084-.14.07zm3.236 2.871h-.006a1 1 0 0 0-.174.075c-.142.07-.33.161-.434.153 0 .166.725-.15.695-.21-.018-.026-.052-.022-.08-.018Zm-.197-.438c-.046-.067-.123-.06-.191-.052a1 1 0 0 0-.117.05c-.08.037-.177.084-.23.09-.02.002-.036-.015-.052-.034-.032-.036-.067-.075-.14.017.1.114.728-.027.73-.07Zm-8.491.543.643.123c.002.089-.612-.035-.643-.123m5.556 8.717c.031.243.04.5-.034.736-.037 0-.044-.675.034-.735Zm1.008-.35c.108.121.031.465-.035.596l.035-.595Zm-.07-8.087c.198-.08.257.203.139.245-.052.019-.256-.198-.139-.245m1.667.28c.027-.013.324.487.208.56z"/><path fill="#E4D6AF" fill-rule="evenodd" d="M20.347 13.61c-.327.204-.973.438-1.355.403-.208-.018-.337-.126-.486-.262.1.02.155.053.207.083.067.039.128.075.28.075.14 0 .311-.071.453-.13l.067-.028h-.312l.295-.263-.538.123.729-.49-.191-.053.434-.227h-.417l.66-.28-.694.07.729-.316-.695.07c.06-.094.24-.146.41-.196.225-.066.435-.128.337-.276-.195.092-.503.229-.712.157l.643-.297c-.03-.132-.242-.012-.428.093-.138.077-.261.147-.284.1l.347-.246c-.03-.045-.116-.01-.2.023-.096.038-.19.075-.2-.005l.643-.263c-.185-.035-.36.045-.526.12l-.082.038-.052-.053.26-.192c.057-.124-.165-.016-.281.04l-.066.03c-.077.01-.157.009-.238.006a1.1 1.1 0 0 0-.352.029.5.5 0 0 0-.175.114.6.6 0 0 1-.137.096c-.032.013-.062-.024-.082-.049-.01-.012-.018-.022-.023-.021-.008 0-.016.023-.027.055-.02.056-.05.142-.112.19-.074.057-.913.467-.85.227.023-.092.94-.563 1.408-.802l.241-.125.278-.28c-.022.01-.073.048-.137.095-.171.125-.433.317-.47.237-.007-.013.031-.032.08-.056.087-.044.206-.104.145-.171-.27.295-.568.417-.904.555h-.002l-.257.11c-.04.017-.13.071-.217.124-.103.062-.204.123-.217.12-.227-.044.361-.703.434-.77.818-.747 2.904-.824 3.299.438.233.748-.188 2.03-1.146 1.926zm-2.645-2.145c.003.018.025.024.035.026l.006.002.694-.263c-.017-.072-.523.119-.59.158a.2.2 0 0 1-.047.013c-.037.008-.082.018-.092.04a.04.04 0 0 0-.006.024m2.95 1.494c-.025-.015-.05-.03-.08-.03-.01 0-.188.059-.19.087l.173.07-.19.228.33-.333a.3.3 0 0 1-.044-.022Zm-.843-1.991c.187-.025-.244.364-.33.262zm.972 1.47h.026c.024-.002.049-.004.06.018-.112.345-.413-.04-.086-.018m-1.163-1.488c-.014-.024-.064-.023-.087-.017a2 2 0 0 0-.199.172l-.062.056c.034.07.205-.084.295-.165q.042-.04.053-.046m1.267 1.243c.13.062-.164.245-.26.088.02-.003.078-.025.135-.046a1 1 0 0 1 .125-.042m-.188-.446c.113-.073.266-.17.084-.149-.013.002-.23.146-.174.21a1 1 0 0 1 .09-.061m-.055-.359h.104v.07l-.225.018c-.024-.038.114-.087.121-.088m.052.648c.01.021.316-.094.191-.158q-.016.01-.052.027c-.067.03-.165.075-.139.13Zm-.26-.788.19.053c-.06.052-.29.006-.19-.053m.156 1.488c.096.147.283-.027.156-.053l-.03.012a.3.3 0 0 1-.126.041m-.642-1.628.087.053-.157.087zm-1.806 0c.015-.009.13-.006.156.018-.058.106-.245.036-.156-.018m2.118.21c.171-.045.037.137-.035.105-.048-.021.01-.098.035-.105m-.104-.455c.072-.01.032.145-.07.14-.019-.033.05-.137.07-.14m-2.31.42c-.03.005-.032-.015-.033-.027l-.001-.008c.17-.084.153-.07.106-.03a1 1 0 0 0-.071.065Zm.712-.385c.06-.027.074.088.035.105-.06.027-.073-.088-.035-.105" clip-rule="evenodd"/><path fill="#E4D6AF" d="m8.69 25.939-.029-.057c-.09-.004-.036.378.07.35.105-.028.012-.197-.041-.293m9.278-7.584-.347-.42c-.083.038.217.304.317.393zm1.83-4.004c-.077-.068-.152-.133-.163-.128-.112.06.245.32.33.263a1.3 1.3 0 0 1-.167-.135m-7.355 2.324c.052-.11.135-.284.073-.35l-.033.065c-.055.11-.117.233-.071.354q.01-.026.03-.069Zm-.239-3.152c.111-.042.173.136.069.175-.112.043-.174-.135-.07-.175Zm-.14 2.801c.095.046-.066.295-.104.28zm-.208 4.201c.096.074-.05.225-.104.28zm6.112-5.741c.047.015-.024.222-.07.245-.064-.048.044-.254.07-.245m-5.226 1.557c-.01-.022-.032-.02-.052-.017-.035.006-.134.144-.07.175zm-.712 2.574c.122-.031.155.11.035.105-.042-.002-.127-.082-.035-.105m4.41-4.201c.058-.01.033.137 0 .14-.048.003-.073-.129 0-.14m.799 1.96c.027.026.03.123 0 .14-.018.011-.095-.099 0-.14m-4.654.036c.049.074.078-.007.035-.07l-.022.02c-.017.013-.03.023-.013.05m3.543-.42c.052-.02.076.05.034.07-.05.022-.076-.055-.034-.07m1.562-2.592c.049.007-.012.108-.035.105-.048-.006.013-.108.035-.105m-6.598-1.26-.035-.035v.07h.035z"/><path fill="#E4D6AF" fill-rule="evenodd" d="M15.694 14.994c.01.006.036.003.061 0 .025-.004.05-.007.06 0 .22.139.438.475.639.785.118.183.23.356.333.475q.038-.021.04-.069l.273.7c.057-.24-.016-.464-.09-.69a2.4 2.4 0 0 1-.101-.379l.26.403c.035-.027-.019-.177-.069-.315-.053-.147-.101-.281-.035-.245.006.003.012.023.02.046.025.076.063.19.12-.081.21.188.123.4.044.588-.047.114-.09.219-.062.305.086.261.309-.656.243-.7.114-.093.102-.031.086.055-.011.06-.025.133 0 .172.18-.329.115-.601-.017-.928l.243.28-.208-.49.07-.035.19.298.052-.053-.208-.42.208.21-.138-.385.139.105-.07-.245h.139c.008-.025-.004-.07-.017-.114-.022-.08-.044-.161.052-.131.288.9-.073 1.753-.425 2.582-.088.209-.176.416-.253.622.779-1.062 1.176-2.55.556-3.782-.024.064-.03.22-.035.336-.006.135-.009.212-.034.014-.174-.028-.186.013-.207.081a.3.3 0 0 1-.054.112c-.042.053-.08.062-.112.07-.025.006-.046.011-.061.035-.009.013-.005.055 0 .099a.3.3 0 0 1 0 .111q-.004.005-.028.009c-.07.012-.235.04-.129.359l-.104-.175-.07.21-.104-.175c-.035.29-.038.281-.068.214-.032-.074-.095-.216-.261-.127l.017.403-.139-.21-.087.052.362.924c-.15-.25-.417-.576-.596-.794-.102-.125-.176-.214-.182-.235-.055-.174.023-1.16.104-1.33.176-.369.97-.172 1.25.035-.06.244-.347.572-.573.647a1 1 0 0 1-.228.03c-.136.006-.277.014-.345.093-.194.227.084.658.226.858-.29-.649-.139-.661.143-.684.14-.01.314-.025.482-.122.16-.092.277-.304.382-.495.053-.098.104-.19.156-.257.029-.038.072-.052.114-.066.066-.022.128-.043.13-.144 0-.242-.971-1.564-1.199-1.768-1.338-1.203-4.05-.97-5.088.542-.982 1.433-1.394 3.22-.381 4.762.053.081.436.638.416.315-.002-.033-.129-.237-.277-.476-.185-.298-.404-.65-.452-.785-.279-.778-.282-1.907.191-2.608.069.097.132.205.196.314.194.33.395.673.776.771.08.021.173.022.263.022.222.002.433.003.432.293.235-.462-.098-.515-.45-.572-.166-.027-.337-.055-.453-.128-.987-.62.687-1.09.955-.437.047.114.19.943.174 1.05-.005.027-.108.167-.248.355-.353.478-.938 1.268-.707 1.308.124-.369.993-1.638 1.284-1.75q.005-.002.021.008c.045.024.149.08.257-.079.009.069-.076.129-.15.18-.095.067-.169.118.029.153-.347.223-.507.552-.672.893-.07.146-.143.294-.231.438.195-.118.295-.338.396-.56.078-.173.157-.346.281-.473-.008.097-.145.362-.267.596-.18.348-.326.627.041.191-.317.858.084.76.53.653a2.6 2.6 0 0 1 .39-.075 7 7 0 0 1 .854.005q.174.008.345.013l-1.459.105c.342.035.425.25.516.49.043.11.088.227.161.332.095-.017.019-.207-.044-.364-.035-.088-.066-.165-.06-.196.061-.024.128.164.165.267.013.036.022.062.026.066.008.007.019 0 .032-.007.042-.024.106-.06.16.234.033-.054.073-.134.118-.223.106-.213.236-.474.367-.547.198-.11.351-.066.49-.028.12.034.228.064.344-.007.143-.087.176-.264.208-.438.018-.093.035-.186.07-.262.32.264.303 1.447.104.42l-.008.022c-.073.22-.126.378-.305.538-.173.156-.425.228-.67.3-.505.145-.988.284-.736 1.118.153.508 1.97 1.256 2.257.49l-.382-.14c.058-.008.125-.006.194-.003.184.006.384.013.466-.172.1-.225-.061-.27-.198-.308-.103-.028-.192-.053-.15-.147.05-.107.167-.028.24.022.026.018.047.032.056.03.228-.037.08-.733.017-.892-.023-.058-.095-.079-.14-.091q-.028-.009-.034-.014a1.6 1.6 0 0 1-.073-.33c-.035-.21-.077-.466-.17-.65-.05-.102-.244-.44-.382-.42.123.198.437.762.382.98-.014.055-.071.058-.104 0-.098-.175-.196-.484-.292-.787a6 6 0 0 0-.229-.649l-.004-.009c-.02-.045-.08-.18-.135-.13l.174.35c-.051.133-.22-.306-.287-.478-.013-.035-.022-.06-.025-.065m-.024-.063a.3.3 0 0 0 .024.063c-.034-.019-.068-.02-.098-.022-.04-.002-.072-.004-.08-.045a.4.4 0 0 1 .021-.143c.092.01.114.082.133.147m-3.73-2.991c.09-.075.253-.213.194-.272a.5.5 0 0 1-.1.101c-.074.062-.153.13-.143.214zm-.396.498c.055.018-.107.287-.236.505-.076.127-.141.235-.146.266-.086-.01.316-.723.382-.77Zm5.17.643c-.118.011-.229.021-.308-.012-.16-.068-.587.07-.174.07.016.011.125.006.241.001a2 2 0 0 1 .28-.001c.133.026.244.086.355.145.081.043.163.087.252.117-.112-.369-.397-.342-.645-.32Zm-3.017 3.314c.342-.017.7.008 1.056.032.287.02.575.04.854.038q.005-.002.02-.018c.033-.036.092-.099.101.07l-2.622.018c-.188-.096.544-.138.59-.14Zm2.043-3.185c.044-.017.085-.032.093-.054.15-.076.048-.069-.105-.035 0 0-.185.045-.173.175.001.018.074.108.132.181.04.05.075.092.076.1a.4.4 0 0 1-.014.175c-.02.089-.038.173.031.227a2 2 0 0 1 .027-.26c.02-.145.042-.3.026-.353-.027-.086-.085-.021-.11.007q-.01.011-.012.01c-.162-.1-.061-.139.03-.173Zm-3.675-.106.02-.002c.084-.007.219-.018.257.072-.048.007-.12.01-.194.012a1.3 1.3 0 0 0-.257.023 2 2 0 0 0-.267.145c-.202.12-.434.26-.445.187-.025-.163.758-.428.886-.437m1.024.157c-.011-.047-.12-.07-.156-.052-.09.043-.08.623.034.595.001-.044.06-.162.105-.253.03-.06.054-.107.052-.115q-.003-.005-.028-.01c-.052-.013-.15-.036-.007-.165m.087.403-.087.332.226-.192q-.043.115-.092.216c-.07.15-.138.295-.151.52q-.008-.075-.021-.16c-.04-.259-.085-.565.125-.716m3.507 3.676c.26-.002.39.364.209.525zm-.416.7c.046-.017.323-.02.295.088-.092.154-.507-.012-.295-.088m.486.42c.279.03-.161.26-.295.088 0-.036.28-.09.295-.088m-1.042-.42c.022-.007.298.012.26.123-.099.099-.463-.057-.26-.123m-.208-.525c.233-.062.178.243-.035.175-.096-.03-.02-.16.035-.175m1.014.034-.007.001a.5.5 0 0 0-.14.105c-.041.105.209.023.261-.018.018-.105-.046-.097-.114-.088m-.563.001c.045-.016.22 0 .191.087-.043.133-.395-.013-.19-.087Zm-1.52-.754-.425-.051c-.008.162.11.126.237.087a.5.5 0 0 1 .187-.036Zm0 0 .01.001h-.011Zm3.048-3.482c.122-.033.103.214-.035.21-.08-.043 0-.2.035-.21m-1.98.175c.042-.002.18.234.105.28-.036-.023-.242-.276-.104-.28Zm.695 5.496.4.053c-.064.058-.392.046-.4-.053m-1.77-2.03c.1-.002.05.248 0 .245-.048-.081-.096-.173 0-.245m1.353-.91c.037-.029.179.122.105.175-.078.055-.177-.12-.105-.175m-.069-.63c.029.018.182.184.139.21-.081.034-.203-.181-.139-.21m-.174-1.261c.057-.027.196.182.14.21-.071.02-.16-.2-.14-.21m-1.996.262c-.019-.025-.06-.023-.087-.017-.015.003-.163.13-.191.158.053.04.283-.126.278-.14Zm1.892-.612c.08.012.16.103.104.175zm-2.188.42c.02.016.249-.158.14-.175l-.026.016c-.06.037-.123.075-.114.159m2.466.35c.06-.024.12.169.07.21zm-4.028-2.276c.013.005.146-.198.104-.245q-.016.025-.042.055c-.047.056-.101.122-.062.19m4.236 3.431c.076.007.149.186.07.176-.02-.003-.112-.135-.07-.176m-2.465-1.505c.04.055-.148.198-.191.158a.7.7 0 0 1 .19-.158Zm3.854-1.26.035.21c-.06-.057-.106-.17-.035-.21m-1.979 1.505c.043-.02.166.116.104.14-.008.004-.183-.103-.104-.14m0-.175c.074-.015.148.05.156.123-.038-.003-.175-.07-.156-.123m.035-.245.07.14c-.077 0-.117-.08-.07-.14m-2.084 2.206c.108-.056.1.102.035.105-.076.003-.066-.09-.035-.105m1.354.49c.077-.04.07.157-.034.14-.013-.007.024-.135.034-.14m1.58 1.715c-.175.029-.116.089 0 .07h.023c.018.002.035.004.047-.017.002-.066-.01-.064-.05-.056l-.008.001zm-.017-1.75c.028.013.03.115 0 .14-.046.039-.037-.158 0-.14m-.73 1.4.04-.001c.045-.004.09-.007.082.054-.018.004-.158-.014-.121-.053Zm-2.326-1.995.018.052-.053.017-.017-.017zm4.237-.98c.087.132.219.363.174.524zm-.104.174.173.42c-.102.057-.216-.34-.173-.42m-.59-.56a.4.4 0 0 0 .02.08c.022.063.043.125-.02.165-.03-.031-.026-.244 0-.245m.867-.35c.075-.054.043.124 0 .105-.026-.012-.029-.084 0-.105m-7.478 1.404c.1-.141.26-.364.186-.424-.354.47-.735.916-1.117 1.363-.498.584-.997 1.168-1.436 1.805-.935 1.358-1.702 2.769-.781 4.394q.034-.276.063-.557c.095-.908.192-1.847.823-2.541-.45.875-.73 1.896-.59 2.905.031.234.118.465.2.687l.025.066c.062-.338.087-.68.112-1.023.03-.402.06-.804.148-1.2.21-.934.779-2.05 1.32-2.836.075-.109.308-.389.569-.7.423-.508.917-1.1.924-1.19.01-.14-.075-.245-.208-.14-.167.132-1.038 1.263-1.39 1.72l-.103.135a5 5 0 0 0-.208.342c-.115.2-.236.41-.261.41-.211.01.097-.345.293-.572.082-.095.145-.167.14-.18-.007-.026-.05-.007-.101.016-.065.03-.142.064-.176.02a.33.33 0 0 1 .159-.072c.048-.012.097-.024.136-.051.139-.098 1.562-1.912 1.615-2.049a.5.5 0 0 0 .035-.245c-.231.077-.404.344-.56.586-.07.108-.137.21-.204.29-.227.266-.466.53-.708.795-.962 1.057-1.953 2.147-2.244 3.581-.051-.177.045-.51.104-.7.345-1.104 1.16-1.979 1.96-2.836.522-.56 1.037-1.112 1.409-1.716l.024-.038c.072-.115.163-.258.132-.4-.054.043-.09.132-.125.222-.056.14-.113.281-.24.252-.004-.009.03-.056.075-.12Zm-2.4 3.805c.104-.156.212-.32.26-.483-.304.382-.64.85-.765 1.33.096-.187.205-.365.315-.544l.085-.138q.05-.081.106-.165Z" clip-rule="evenodd"/><path fill="#E4D6AF" fill-rule="evenodd" d="M18.437 15.607c-.027-.023-.131-.107-.156-.088-.128.099.222.714.295.823.334.5.776.95 1.223 1.408.851.87 1.721 1.76 1.902 3.038l.001.005c.007.043.052.318-.036.275-.09-.816-.496-1.559-.972-2.206-.283-.385-.66-.78-1.039-1.177-.5-.524-1.002-1.05-1.288-1.553-.05-.088-.225-.38-.208-.105.003.047.392.75.451.84.198.3.451.58.706.86.353.39.71.783.927 1.24q-.451-.556-.91-1.11-.382-.458-.757-.92a1 1 0 0 1-.084-.128c-.143-.23-.4-.644-.472-.397-.064.221.533.88.924 1.312.131.145.24.264.291.333 1 1.315 1.613 2.666 1.737 4.341.007.1-.001.211-.01.328-.02.253-.04.529.097.74.425-.916.22-1.948-.018-2.888.349.455.387 1.041.425 1.617.014.224.029.446.061.659.565-.631.433-2.03.174-2.801-.233-.693-2.693-3.972-3.264-4.447Zm2.24 3.553.032.04c.177.217.395.484.42.766zm.556 1.47-.382-.804c-.053.035-.045.055-.03.09l.012.032c.036.111.168.317.278.488.048.076.092.144.122.195Zm-5.088-.997c-.285-.445-1.673-.594-2.17-.543-.312.032-1.232.283-1.407.543-.273.406-.23 1.052.295 1.207l.087-.087a.8.8 0 0 0-.045-.227c-.041-.132-.077-.246.062-.456.044.133.037.273.03.405-.01.234-.02.444.248.54v-.665c.015.06.022.123.03.186.018.157.035.31.178.41.085.001.087-.088.09-.185.002-.087.005-.18.067-.218a.7.7 0 0 0 .156.578c.127-.054.184-.036.242-.018q.032.012.07.018c.674.079 1.55-.012 1.91-.595l-.017.227c.4-.106.369-.817.174-1.12m-2.275-.368c.048.086-.32.427-.364.333zm-.868.14c.15-.019-.21.382-.243.385zm.368.18c.105-.068.241-.157.188-.25l-.278.315c.02-.018.053-.04.09-.065m-.02-.285c-.015.117-.15.237-.252.329l-.061.056c.018-.146.172-.271.284-.361zm2.048 1.086c.021.003.058.4-.034.42-.052-.048.004-.425.034-.42m-.555.07.07.49c-.111-.032-.1-.49-.07-.49m.243.49c.02-.001.058-.371-.035-.385-.04.105-.013.207.015.31zm-.66-.35c.027.004.028.3 0 .35-.096-.084-.05-.211-.013-.313zm1.25-.28c.095.015.051.22.035.28-.073-.047-.062-.212-.035-.28m-.868-1.05c.038-.018.202.16.104.21l-.01-.014c-.038-.046-.143-.174-.094-.197Zm-.677.052c-.014-.025-.063-.024-.087-.018-.01.003-.154.135-.139.175zm.885-.018c.071.005.104.049.139.096q.023.032.052.062c-.06.047-.171-.108-.19-.158Zm.313 0 .139.175c-.063.028-.17-.105-.14-.175Zm-1.459 1.296c.096.004.058.143 0 .175a.19.19 0 0 1 0-.175m.764-1.33c.01-.005.094.107.07.14-.07.018-.123-.119-.07-.14m-.382.034c.052.03.019.14-.07.105-.028-.025.065-.108.07-.105m.174 0c.023.003.083.087.035.105-.028.01-.141-.117-.035-.105m-2.014-3.291c.023.008-.041.176-.12.381-.104.276-.233.617-.21.722.034.155.073-.055.098-.193a.5.5 0 0 1 .024-.105c.02-.015.494-.009.52 0 .01.003.051.05.104.107.081.09.19.21.244.243.154.096.343.136.528.176.392.083.764.163.74.752-.034.775-.995.99-1.68 1.143a8 8 0 0 0-.283.065l.052-.123-.208-.07.52-.175c-.434.123-.476.055-.538-.047a.4.4 0 0 0-.138-.145q-.022-.01-.074-.008c-.088 0-.225 0-.291-.15-.114-.257.079-.311.22-.35.068-.02.125-.036.127-.07.01-.126-.177-.093-.293-.073-.054.01-.093.017-.089.003l-.009-.085c-.024-.229-.052-.49.079-.685a.36.36 0 0 1 .16-.12c.038-.018.07-.033.083-.055.016-.027.05-.16.087-.307.042-.167.088-.353.121-.428.02-.047.202-.411.226-.403m-.156 1.383a.4.4 0 0 0-.296-.052c-.227.063-.305.614 0 .455.128-.067.053-.14-.014-.203-.044-.043-.084-.082-.055-.112zm-.018.613c.099-.022.345.048.26.158-.094.123-.629-.074-.26-.158m-.057.472-.082-.017c-.555.03.12.29.296.053-.04.004-.141-.02-.214-.036m-.047-.892c.073-.033.296-.001.295.122-.117.084-.512-.023-.295-.122m.46 1.084-.008.001c-.025.002-.28.073-.296.123l.434-.053c.016-.08-.076-.074-.13-.07Zm.339-.629c.011-.006.266-.03.26.053-.058.126-.4.024-.26-.053m-.278-.49c.04-.026.23.032.226.122-.09.087-.344-.045-.226-.122m.486-.035c.07-.043.27.02.191.122-.071.093-.302-.055-.19-.122Zm-.512-.47-.026.015v-.014l.001-.013c.004-.069.008-.148-.07-.096a.23.23 0 0 1-.012.13c-.012.033-.017.047.046.063.037.009.225.007.243-.018l-.087-.122a.6.6 0 0 1-.095.056Zm-.287-.125c.032.02.036.251-.034.21-.034-.067-.034-.163.034-.21m.209 1.54c.118-.062.155.085.034.07-.007 0-.069-.052-.034-.07m.243-.42c.048.006-.012.108-.035.105-.048-.006.012-.108.035-.105" clip-rule="evenodd"/><path fill="#E4D6AF" fill-rule="evenodd" d="m18.142 13.628 3.003 3.414.1.136c.446.613.884 1.213 1.081 1.965.149.565.324 1.437-.017 1.943a4 4 0 0 1-.076-.683 4 4 0 0 0-.08-.7c-.24-.976-1.166-1.911-2.053-2.807-.581-.587-1.145-1.156-1.49-1.71l-.006-.01c-.125-.2-.314-.503-.254-.742l.677.822zm.382.526c.408.774 1.025 1.426 1.642 2.076.833.88 1.664 1.756 1.97 2.93-.394-1.063-1.146-1.887-1.896-2.71-.653-.715-1.304-1.429-1.716-2.296m-1.216 8.578a2 2 0 0 1-.097.22c-.045.091-.089.18-.094.217-.008.056.012.204.034.365.035.268.076.57.001.545l-.156-.543c-.197.29-.11.583-.018.89.045.15.09.301.105.458.043.463-.017.92-.078 1.378-.03.235-.062.47-.079.705.553-.823.6-1.91.573-2.888l.226.438.122-.473-.018 2.573c.683-1.06.619-2.5.4-3.694l-.07-.034c-.403.34-.5.425-.347.98-.13.168-.215-.236-.256-.432-.01-.046-.017-.08-.022-.093a1.3 1.3 0 0 0-.1-.194c-.074-.123-.145-.241-.126-.418m.73.49c.097.063.212.61.104.63-.136-.113-.126-.458-.104-.63m-.695.035.14.665c-.053.014-.274-.695-.14-.665m.834 1.47c.025 0 .03.338 0 .385-.027 0-.027-.385 0-.385M9.564 14.153h.004c.029-.003.07-.007.083.018-.337.399-.7.784-1.062 1.171-1.226 1.307-2.462 2.624-2.776 4.483-.357-1.523.623-3.255 1.737-4.236.2-.177 1.886-1.422 2.014-1.436m-2.118 1.822-.799.98c-.131-.062.54-.724.745-.927zm-.792 1.348c.111-.137.24-.297.236-.473-.04.05-.377.478-.277.525zm-.32.577c.042.014-.015.238-.069.21-.06-.042.052-.216.07-.21Z" clip-rule="evenodd"/><path fill="#E4D6AF" fill-rule="evenodd" d="M18.871 14.188c1.212.757 2.444 1.551 3.178 2.819.414.717.962 1.84.607 2.643-.356-1.692-1.443-2.862-2.54-4.044-.428-.46-.857-.922-1.245-1.418m2.427 2.234q.085.073.16.148l.025.048c.046.094.14.29.201.267.024-.11-.071-.187-.154-.253a1 1 0 0 1-.072-.062l-.022-.032-.024-.036c-.128-.187-.256-.374-.457-.492.066.171.206.293.343.412m.56.848c.049-.023.22.172.139.21-.028-.015-.184-.19-.14-.21Zm.312.63c.042-.02.166.115.104.14-.056.023-.13-.127-.104-.14M9.286 21.89c.008.104.237.32.384.457.067.063.117.11.12.122.005.024-.025.102-.064.198-.074.188-.176.447-.092.52.087.075.115-.132.14-.323.017-.132.033-.256.068-.273.06-.03.309.048.33.123.018.062-.093.465-.209.89-.112.409-.23.838-.243 1-.025.306 0 .623.024.94.022.29.044.58.028.863-.694-1.442-.927-2.95-.486-4.516Zm.244 2.592c.037 0 .192-.679.069-.735l-.028.09c-.066.206-.144.453-.041.645m-.14-2.24.018.612-.087.122.07-.735Zm.209 2.625c.031.021.035.252-.035.21-.034-.066-.034-.163.035-.21m-.347-1.295c.017-.01.092.113.034.14-.064.03-.072-.12-.034-.14m9.718-1.369c.11-.111.23-.234.248-.312.09-.014.176.533.191.648.167 1.28-.153 2.584-.781 3.693.079-.942.08-1.817-.087-2.748a2 2 0 0 0-.099-.323c-.102-.268-.177-.464.255-.64.087.018.087.16.088.31.001.147.002.303.086.355.12-.005.01-.395-.052-.613a1 1 0 0 1-.035-.14c.005-.044.092-.132.187-.23Zm-.133 2.734c.102-.163.048-1.219-.07-1.26l-.087.087zm.312-2.66c-.023.058.014.255.043.414.02.114.038.209.026.215-.175.107-.122-.63-.069-.63Zm-.104 2.205c.077.056.077.188 0 .245a.36.36 0 0 1 0-.245m.104-.84c.06-.052.042.143-.035.14a.3.3 0 0 1 .035-.14m-9.046 1.628a5.75 5.75 0 0 1 .26-2.399c.026.072.229.226.378.34.088.067.157.12.16.133a.5.5 0 0 1-.041.14c-.066.183-.176.485-.046.577.027.006.067-.13.118-.302.089-.298.21-.706.351-.695l-.416 2.24c-.067.04-.068.008-.068-.032l-.002-.038c-.005-.026 0-.138.008-.277.014-.297.034-.718-.025-.685-.127.5-.124 1.016-.122 1.532.002.284.003.568-.017.848-.205.175-.526-1.266-.538-1.383Zm.468-2.048c.07.022-.175.672-.243.735-.067-.085.206-.747.243-.735m1.424.525c-.259.54-.304 1-.26 1.592.057.78.277 1.862.712 2.504l.364-3.94-.313.596-.086.858c-.133.11-.12-.262-.109-.644.012-.356.023-.72-.082-.704-.145-.036-.134.317-.123.68.011.348.022.705-.103.738zm.278 2.556c.02.003.059.369-.035.385-.053-.046.01-.39.035-.385m2.397-1.086a11 11 0 0 1-.18 2.676c-.073.435-.157.94-.411 1.28l-.504-3.624.434 1.208.018-.507c.24.467.29.15.356-.254.052-.323.113-.701.286-.78Zm-.4 2.924-.052-.228-.07.63zM12.364 14.82a2 2 0 0 0-.143.174l-.042.057c-.05.062-.105.133-.083.213l.003.01c.063-.023.095-.167.111-.24q.007-.035.01-.04a.1.1 0 0 1 .028-.01c.056-.018.182-.057.233-.2.09.048-.146.375-.281.562-.041.057-.073.101-.083.12-.04.075-.078.164-.117.255-.082.195-.17.402-.3.516l.035-.385c-.136.048-.133 1.1-.087 1.137l.01-.01c.02-.026.068-.09.111-.007l-.086.157-.47-.892.14.07c-.083-.382-.03-.656.173-.98l-.26.332.156-.508c-.222.158-.22.414-.218.652 0 .084.002.166-.008.241-.278-.42-.192-.84-.017-1.278l-.139.175-.121.438c-.111-.15-.02-.321.065-.482.037-.07.073-.138.09-.2l-.277.28c-.005-.072.077-.239.153-.391.122-.248.226-.456-.1-.152-.063-.03.014-.126.095-.228.073-.093.15-.19.13-.245-.044-.083-.127.064-.211.213-.077.135-.155.273-.206.242l.4-.613c.12.125.076.262.017.403l.121-.122c.04.056.06.108.077.152.034.086.056.143.184.145-.056.149-.012.132.036.115.056-.02.118-.043.016.218l.243-.14-.035.245.157-.193c.145-.008.076.076-.005.176-.063.078-.135.166-.117.227l.313-.35c.121.033.071.088.012.155-.045.049-.094.104-.082.16.023.008.094-.063.174-.143.133-.131.29-.288.295-.155 0 .01-.046.063-.1.124m-.786.664-.034 1.19c-.17-.415-.166-.787.034-1.19m-.486.07.14-.49-.054.108c-.063.12-.13.246-.086.382" clip-rule="evenodd"/><path fill="#E4D6AF" fill-rule="evenodd" d="m14.044 21.75.173 1.401c.038-.158.029-.403.02-.648-.011-.272-.022-.545.033-.7.009-.026.08-.083.104-.035l.017 1.208c.051.001.077-.234.105-.498.033-.305.07-.647.155-.71l.07.035c-.05.357-.045.732-.04 1.104.003.34.007.677-.03.997-.033.294-.132.568-.232.843-.104.29-.208.579-.236.89-.094.06-.07-.285-.057-.455q.006-.07.005-.088a17 17 0 0 0-.092-.802c-.055-.42-.11-.84-.117-1.263-.002-.117-.002-1.313.122-1.278Zm.278 2.242-.035.735c-.104-.24-.04-.5.035-.735m-2.778-5.602c.081.044-.132.19-.351.34-.197.134-.399.272-.396.342-.01.073.054.032.09.01a2 2 0 0 0 .243-.179 1.8 1.8 0 0 1 .318-.225c.041-.028.075-.05.113.01-.812.64-1.262 1.667-1.32 2.695l-.104-.49-.017 1.068c-.695-1.338.042-3.063 1.424-3.571m-1.042 1.12c.12.006-.058.226-.104.21z" clip-rule="evenodd"/><path fill="#E4D6AF" d="M20.364 25.427c.123.013.163.835-.156.753-.045-.135-.01-.22.025-.302.033-.08.065-.157.027-.276-.072.097-.117.303-.147.438-.038.175-.05.23-.061-.228-.095.042-.123.157-.15.266-.033.128-.062.248-.198.224-.046-.008.037-.455.053-.473.022-.025.069-.02.106-.016.023.003.043.005.05-.001l.19-.163.003-.003q.128-.112.258-.22Zm-1.041.455c.157-.036.217.185.138.315l.226-.227c-.156.532-.246.389-.309.288-.02-.034-.039-.063-.055-.06-.026.003-.035.034-.045.07-.016.055-.035.121-.13.104l.036-.28a1 1 0 0 0-.112.177c-.061.116-.111.212-.305.243.072-.123.45-.606.556-.63m-10.905-.035c.11-.018.105.27 0 .315-.033-.055-.097-.299 0-.315m12.537-.525.087.122-.053.088-.086-.123z"/><path fill="#E4D6AF" fill-rule="evenodd" d="M7.203 24.201c.096.198.065.428.033.662-.026.183-.051.37-.016.546.083-.065.09-.22.098-.374a1 1 0 0 1 .04-.29c.092-.087.079.435.069.826a3 3 0 0 0 .001.398c.1.287.111-.173.121-.55.006-.232.012-.432.036-.412.138.616.159.513.186.38.013-.064.027-.134.057-.135.055-.002.073.13.08.194a.1.1 0 0 0 .007.033c.034.047.106.082.179.119.093.046.187.092.203.162a4 4 0 0 1-.035.385c-.055.106-.382.05-.616.009a1 1 0 0 0-.235-.027c-.035.012-.274.771.017.543l.052-.333c.016.31.286.306.562.302.106-.001.213-.003.307.013 1.428.244 4.153 1.58 4.497 3.134.077.348.206 1.595-.313 1.54-.026-.025-.024-.163-.02-.332.005-.273.012-.626-.101-.7q0 .11.013.256c.03.392.069.913-.36 1.004-.485.102-.49-.361-.495-.857-.004-.362-.008-.741-.2-.929q.009.069.025.17c.09.58.288 1.87-.477 1.686-.366-.089-.391-.653-.413-1.143-.011-.244-.022-.47-.073-.608-.13.188-.08.5-.031.805.062.384.123.76-.177.876-.79.305-.704-1.073-.66-1.506-.152.272-.139.559-.125.855l.004.073-.053.088c-.19-.242-.128-.572-.07-.875q.02-.109.036-.21c-.291.396-.189.963.121 1.312-.488.354-.496-.307-.501-.76a2 2 0 0 0-.02-.325c-.073-.286-.619-.359-1.23-.44-.7-.094-1.485-.2-1.756-.646-.374-.616.101-1.34.531-1.995.225-.342.437-.666.51-.945.075-.286.077-.602.08-.922.002-.361.004-.727.112-1.056Zm1.804 5.266c-.134-.278-.27-.558-.484-.784.006.192.159.406.307.613.114.16.225.315.266.455l.006.021c.016.055.022.073-.024.137-.102-.056-.34-.428-.537-.735-.145-.225-.267-.415-.296-.42-.203-.038-.013.136.06.202l.027.025.004.007c.048.08.371.62.256.64a1.15 1.15 0 0 0-.475-.106c-.251-.017-.456-.031-.567-.419-.073-.004-.043.064-.009.138.042.093.088.195-.06.177-.112-.013-.13-.112-.149-.213-.015-.082-.03-.165-.094-.207l.034.35q-.065-.01-.134-.027c-.168-.04-.342-.081-.473.08.278.077.597.112.917.147.405.045.814.09 1.149.22.135.053.251.182.32.257.032.036.054.06.062.059.016-.003.165-.28.156-.298-.005-.012-.022-.014-.042-.017-.032-.003-.074-.009-.097-.053zm-1.839-2.324.035.105c-.523.58-.885 1.295-.573 2.083l-.122.017c-.317-.774.111-1.613.66-2.205m-.378.228c.162-.172.415-.44.344-.473a2.9 2.9 0 0 0-.712.927c-.064.135-.514 1.361-.191 1.348.031-.151.048-.304.065-.457a3.3 3.3 0 0 1 .126-.68c.013-.041.221-.491.243-.526.011-.018.061-.071.125-.139m.413.122c.02-.008.075-.006.087.017-.185.26-.481.74-.521 1.05a1 1 0 0 0 .006.125c.016.222.046.641-.093.523-.207-.175.227-1.602.521-1.715m-.526-.285c.31-.328.623-.661.491-1.15l-.798 1.505a4 4 0 0 1 .307-.355m.7.495-.191.613c-.18-.026-.15.113-.119.258.018.085.037.173.014.232l-.156.017c-.017-.445.197-.778.452-1.12m-1.39 1.155.278-1.155-.022.038c-.187.327-.418.728-.255 1.117Zm5.487.14c.11-.004.323-.011.417.035.225.11-.098.108-.451.105-.252-.002-.52-.005-.614.034.165-.099.48-.167.648-.174m-3.49-.354c.005-.155.011-.31-.017-.45-.052.126-.121 1.092-.087 1.137.015.02.213.052.26.052-.176-.189-.166-.464-.156-.739m-.33-.626c-.013.052-.011.162-.01.287.005.266.01.6-.128.588-.084-.007.054-.798.138-.875m-.347.84.174-.91c-.02.054-.052.119-.086.189-.12.248-.273.562-.088.721m.556-.84-.104 1.05-.052-.507zm1.945 3.221a3.4 3.4 0 0 0 0-.77l-.053.402zm.034-1.996c.088-.002.07.057.05.118-.017.055-.035.11.02.127l.19-.052-.156.157c-.111-.038-.262-.345-.104-.35m-1.18-1.085c.07-.006.165.381.069.385-.08-.1-.193-.275-.07-.385Zm-.452.84.104.49c-.128-.047-.118-.21-.108-.359q.006-.07.004-.13Zm.73-.14.208.385c-.085-.002-.277-.35-.209-.385Zm.624.175c.093-.053.055.057.013.175-.03.084-.06.172-.047.21-.113-.045-.005-.362.034-.385m2.246 1.868a2 2 0 0 1-.023-.222c-.03 0-.048.543.035.595.023-.125.005-.25-.012-.373m-3.774-5.124.035.315c-.155.002-.07-.314-.035-.315m-.277-.175c.093.093.072.24.034.35zm1.632 3.081c.078.06.051.14.025.219a.5.5 0 0 0-.025.096c-.056-.088-.096-.233 0-.315m1.389 1.926c.096.041.067.561.035.56zm-1.702-2.206c.052.082.096.204 0 .28-.051-.082-.096-.204 0-.28m-2.118.595c.062-.047.132.162.07.21-.063.048-.133-.162-.07-.21m.312-3.43a.6.6 0 0 1 0 .314c-.079-.063-.08-.247 0-.315Zm1.98 3.71c.046 0 .167.217.07.21-.05-.003-.187-.21-.07-.21m-1.042-.805c.022.026.086.165.035.175-.034.007-.084-.132-.035-.175m-.73-1.47c.053-.02.077.051.036.07-.051.022-.077-.055-.035-.07Zm2.64 2.485.052.018-.052.052-.017-.017zm11.078-5.147c.01.233 0 .486-.011.742-.018.4-.035.81.028 1.166.047.264.19.52.336.783.147.265.298.536.359.828.078.373.17 1.306-.174 1.505.128-.664.183-1.351-.191-1.943l.018.067.02.074c.107.384.197.707.153 1.137-.014.138-.128.703-.313.7.363-.846.172-1.623-.364-2.328-.029.146.066.292.165.444.065.1.132.203.165.309.166.54.149 1.155-.087 1.663-.139.023-.36.039-.622.057-.878.063-2.209.159-2.382.66-.049.142-.044.297-.04.452.005.144.009.288-.03.424-.038.135-.342.564-.45.28-.022-.057.006-.2.041-.377.075-.377.181-.912-.094-1.111.16.421.099 1.697-.486 1.75-.494.045-.423-.522-.359-1.038.035-.274.067-.533.012-.677-.108.133-.132.423-.157.73-.037.457-.077.95-.4 1.02-.64.142-.529-.873-.462-1.474.015-.137.028-.253.029-.329-.166.146-.176.48-.186.816-.012.425-.025.854-.352.918-.562.108-.545-.467-.53-.958.005-.204.01-.394-.026-.513-.114.386-.135.822-.017 1.208-.448.143-.406-.74-.382-1.015.119-1.375 1.829-2.3 2.969-2.819 1.214-.551 2.287-.79 3.629-.788v-.63c-.181.049-.157.222-.134.392.011.079.022.157.012.221-.047-.033-.072-.154-.097-.271-.027-.133-.054-.261-.111-.254q-.005.002-.02.015c-.05.044-.166.147-.206-.068-.01-.057.193-1.135.295-1.103.004.12-.03.237-.065.352-.057.192-.113.38.013.576.034.023.053-.153.078-.374.034-.308.078-.702.183-.764.052.067.005.23-.043.395-.06.205-.12.413.008.446.165.042.157-.375.151-.683-.002-.122-.004-.227.005-.28.014-.08.062-.19.1-.28zm-2.952 5.708c.071.018.895-1.125.764-1.226-.039.104-.28.395-.491.648-.17.204-.319.383-.325.42-.008.047-.001.144.052.158m1.32-1.19c.033.166-.067.27-.175.38-.087.09-.178.184-.207.32l-.104-.14c-.046.18-.173.263-.365.262l.85-.823Zm-2.934.297c.021-.104-.927-.168-1.025-.158-.027.003-.371.088-.347.175l1.371-.017Zm2.066-.333c.122.06-.51.92-.59.98-.077-.051.138-.337.33-.592.125-.166.241-.32.26-.388m2.361-1.26c.191.34.319.73.243 1.12zm-3.125 2.276c.284.124.195.527.131.816v.001l-.027.128a4 4 0 0 0-.104-.945m1.146-.63c.174-.018.458-.718.208-.666-.03.007-.053.122-.08.256-.03.16-.068.346-.128.41m.833-.666c.105.072.065.61-.035.596-.115-.164-.04-.382.02-.553zm.521-.385c.114.148.169.43.07.595-.127.028-.094-.515-.07-.595m-2.952 2.31c.12.202.157.445.07.666-.103-.204-.108-.441-.07-.665Zm3.612-1.855c.102.003-.026.469-.139.49a.49.49 0 0 1 .139-.49m-.973.455c.104-.004-.038.456-.069.456-.106-.104-.029-.257.033-.38l.037-.076Zm1.077-2.345-.07-.595-.003.026c-.021.181-.052.433.073.569m-1.458 2.52c.152.023.015.39-.07.316-.057-.05-.005-.271.07-.316m-2.362.316c.125-.007.27-.429.07-.316-.018.01-.012.049-.006.093.01.062.02.134-.03.153-.027.01-.052-.017-.076-.045-.034-.039-.068-.078-.114-.008zm3.785-.42c.188.027-.094.367-.173.245-.04-.061.159-.248.173-.245m-.972-.7-.035.42c-.093-.001-.054-.376.035-.42m-5.14 2.1c.115.042.029.56 0 .56a1.8 1.8 0 0 1 0-.56m3.195-1.54c.074.048-.088.439-.139.42l.14-.42Zm.348-.63c.056.138-.015.278-.105.384l.105-.385Zm-2.188 2.8c.036 0 .028-.677 0-.735l-.035.385zm4.306-1.995c.18-.055-.052.31-.139.28-.05-.025.09-.266.139-.28m-.023-1.056a1 1 0 0 1-.047-.1c-.077.097.048.32.102.416l.003.004c.065-.081-.003-.212-.058-.32m.092.495a.63.63 0 0 1-.07.456c-.058-.08-.001-.244.04-.364a1 1 0 0 0 .03-.092m-.486.876c.089.057.22-.162.14-.245l-.031.029c-.062.057-.181.168-.109.216m-4.792 1.19c.038.15.001.342-.035.49-.024-.156-.05-.345.035-.49m2.467-1.55c.02-.112.052-.292-.036-.376l-.002.01c-.02.112-.052.291.037.375l.001-.01Zm2.499-.236c.097 0 .07.23-.035.245-.094-.03 0-.244.035-.245m.452-.968-.035-.082c-.026.06.018.382.069.385.065-.091.012-.204-.034-.303m.347.863c.099-.002.053.245 0 .245l-.053-.087zm-1.667-.385c.095.016.051.22.034.28-.094-.012-.052-.217-.034-.28m-1.39.105c.1-.003.05.21 0 .21-.066 0-.07-.207 0-.21m-.486.455.035.245c-.082-.012-.099-.25-.035-.245m1.771.35c.158.02-.167.283-.121.088a.5.5 0 0 1 .122-.087Zm1.529-1.015c.094.006.062.177 0 .21a.27.27 0 0 1 0-.21m-3.091 1.016c.011-.004.116.136.07.175-.055.025-.12-.158-.07-.175m-.209 0c.096.003.058.143 0 .175a.19.19 0 0 1 0-.175m2.71-1.47c.06-.039.073.121.034.14-.064.028-.073-.117-.035-.14Zm-.244.384c.027.026.03.123 0 .14-.018.011-.095-.099 0-.14m-.313.035c.064-.01.041.14-.034.105-.023-.01.029-.104.034-.105" clip-rule="evenodd"/><path fill="#E4D6AF" fill-rule="evenodd" d="M21.418 25.088c.034-.415.067-.828.023-1.132l-.043.287c-.124.809-.272 1.78.06 2.497.025.052.075.11.127.171.059.07.121.142.151.214.22.521.724 1.959.122 2.328-.26.16-.893.22-1.527.283-.521.05-1.043.101-1.356.207-.099.034-.344.121-.347.245.257-.118.814-.179 1.432-.246 1.077-.118 2.336-.255 2.51-.752.122-.35-.037-.957-.174-1.295-.096-.235-.305-.507-.506-.769-.213-.276-.416-.54-.467-.736-.084-.326-.044-.816-.005-1.302m.857 4.19c.358-.055-.064-1.694-.348-1.89.028.149.1.324.171.502.09.223.183.45.194.636.002.033-.013.114-.03.21-.042.234-.1.56.012.542Zm-7.328-7.562.052 1.348.226-1.243c.212.979.18 2.063-.417 2.87zm.104 1.645c.034.117.013.233-.009.35-.01.058-.021.117-.025.176-.027 0-.05-.48.034-.526m-1.563-1.575.104 1.155c.074-.156.063-.344.053-.53-.012-.222-.024-.443.104-.608l.121 3.029c-.461-.948-.776-2.012-.382-3.046m.07 1.576c.027 0 .027.175 0 .175-.03-.029-.024-.175 0-.175" clip-rule="evenodd"/><defs><linearGradient id="a" x1=".951" x2="28.023" y1="34.605" y2="34.605" gradientUnits="userSpaceOnUse"><stop stop-color="#243B2E"/><stop offset=".475" stop-color="#355945"/><stop offset="1" stop-color="#243B2E"/></linearGradient><linearGradient id="b" x1=".846" x2="28.127" y1="4.247" y2="4.247" gradientUnits="userSpaceOnUse"><stop stop-color="#243B2E"/><stop offset=".475" stop-color="#355945"/><stop offset="1" stop-color="#243B2E"/></linearGradient></defs></svg>