<svg xmlns="http://www.w3.org/2000/svg" width="166" height="49" fill="none"><path fill="#4845D2" d="M54.73 16.896q0-1.305-.357-1.918-.358-.64-1.432-.64h-.512v-.511h2.302q.946 0 1.407.256.486.23.69.87.204.638.205 1.943v12.788h9.079v1.023H54.731V16.896Zm17.212 14.066q-1.74 0-3.018-.818a5.4 5.4 0 0 1-1.944-2.276q-.665-1.432-.665-3.171 0-1.74.665-3.172t1.944-2.25q1.278-.845 3.018-.845t3.018.845q1.278.817 1.944 2.25.665 1.432.665 3.172 0 1.739-.666 3.17a5.4 5.4 0 0 1-1.943 2.277q-1.28.819-3.018.819Zm0-1.023q.946 0 1.662-.69.742-.69 1.126-1.893.409-1.202.409-2.66 0-1.457-.41-2.66-.382-1.201-1.125-1.892-.716-.69-1.662-.69c-.946 0-1.194.23-1.688.69q-.717.69-1.126 1.893-.383 1.202-.383 2.66 0 1.457.383 2.66.41 1.201 1.126 1.892.741.69 1.688.69m12.308 5.883q-2.582 0-4.117-.946-1.509-.947-1.509-3.018 0-1.178.793-2.046.793-.87 2.02-1.28-1.023-.561-1.023-1.534 0-.51.23-.793a4 4 0 0 1 .665-.613q-.818-.41-1.38-1.28-.538-.868-.538-2.045 0-3.837 4.86-3.837h4.731v.64l-1.662.256v.127q.793.41 1.279 1.151.51.717.511 1.663 0 3.836-4.86 3.836-2.685 0-2.685.895t2.686.895q2.48 0 4.04.998 1.587.972 1.586 2.967 0 2.07-1.534 3.018-1.509.945-4.092.946Zm0-10.614q1.152 0 1.842-.69.716-.717.716-2.251 0-1.458-.716-2.2-.69-.741-1.841-.741t-1.867.716q-.69.69-.69 2.225 0 1.534.69 2.25.716.69 1.867.691Zm0 9.59q1.536 0 2.43-.74.895-.717.895-2.2 0-2.558-3.069-2.942L83.1 28.79q-1.05.408-1.611 1.15-.564.742-.563 1.919 0 1.483.895 2.2.895.74 2.43.74Zm12.307-3.836q-1.74 0-3.018-.818a5.4 5.4 0 0 1-1.943-2.276q-.665-1.432-.665-3.171 0-1.74.665-3.172.664-1.433 1.943-2.25 1.28-.845 3.018-.845 1.74 0 3.018.845 1.28.817 1.944 2.25.665 1.432.665 3.172 0 1.739-.665 3.17a5.4 5.4 0 0 1-1.944 2.277q-1.278.819-3.018.819Zm0-1.023q.946 0 1.663-.69.742-.69 1.125-1.893.41-1.202.41-2.66 0-1.457-.41-2.66-.383-1.201-1.125-1.892-.717-.69-1.663-.69-.945 0-1.688.69-.716.69-1.125 1.893-.384 1.202-.384 2.66 0 1.457.384 2.66.41 1.201 1.125 1.892.742.69 1.688.69m9.215-12.787q-.59 0-1.024-.486a1.73 1.73 0 0 1-.409-1.151q0-.537.307-.844.333-.307.87-.307.588 0 .997.486.435.486.435 1.15 0 .538-.333.845-.306.306-.843.307m-.972 4.603q0-1.305-.358-1.918-.359-.64-1.433-.64h-.511v-.51h2.302q.945 0 1.406.255.486.23.691.87t.204 1.943v8.952H104.8zm5.526 0q0-1.305-.358-1.918-.358-.64-1.432-.64h-.511v-.51h2.301q.972 0 1.458.28.512.256.716.87h.128q.46-.588 1.305-.997.843-.41 2.148-.41 2.2 0 3.401 1.79 1.203 1.766 1.202 4.477 0 2.736-1.253 4.5-1.227 1.765-3.606 1.765-.972 0-1.713-.204a9 9 0 0 1-1.484-.563v5.371h-2.302zm4.732 8.184q1.636 0 2.404-1.432.793-1.433.793-3.81 0-2.354-.742-3.786-.742-1.458-2.199-1.458-1.714 0-2.686 1.535v8.184q.768.359 1.33.563t1.1.204m11.895 1.023q-2.942 0-3.965-1.023a1.86 1.86 0 0 1-.537-.971q-.102-.563-.102-1.714h.512q.23 1.28 1.099 1.995.895.69 2.481.69 1.407 0 2.097-.485.716-.487.716-1.305 0-.74-.562-1.279-.537-.537-1.739-1.023l-1.535-.639q-1.534-.615-2.302-1.432-.767-.82-.767-2.02 0-1.56 1.177-2.43 1.176-.896 3.043-.896 2.814 0 3.836 1.023.435.435.537.972.103.538.103 1.714h-.512q-.204-1.279-1.074-1.97-.87-.716-2.378-.716-1.203 0-1.893.512-.665.486-.665 1.279 0 1.33 2.046 2.174l1.535.64q1.738.715 2.532 1.534.792.792.792 2.046 0 1.56-1.253 2.455-1.253.87-3.222.87Zm11.005 0q-1.919 0-3.146-1.023-1.202-1.022-1.202-3.58v-4.604q0-1.305-.358-1.918-.358-.64-1.433-.64h-.255v-.51h2.046q.946 0 1.406.255.486.23.691.87t.204 1.943v4.604q0 1.79.793 2.634.819.819 2.021.819 1.355 0 2.557-1.356v-9.77h2.302v12.02h-1.279l-.895-1.022h-.128q-.537.537-1.406.92-.844.359-1.918.358m8.929-9.207q0-1.305-.358-1.918-.358-.64-1.432-.64h-.511v-.51h2.301q.947 0 1.433.255.511.255.741.767h.128q.537-.537 1.381-.895.87-.384 1.944-.384c1.074 0 1.33.137 1.841.41q.768.384 1.228 1.38a4.4 4.4 0 0 1 1.688-1.304 5.1 5.1 0 0 1 2.148-.486q1.638 0 2.609 1.023.972 1.024.972 3.581v7.673h-2.302v-7.673q0-1.841-.511-2.634-.512-.819-1.535-.819-.715 0-1.509.538-.793.51-1.176 1.125.128.383.128 1.79v7.673h-2.302v-7.673q0-1.841-.512-2.634-.511-.819-1.534-.819-1.356 0-2.558 1.356v9.77h-2.302z" class="ccustom"/><path fill="#4845D2" fill-rule="evenodd" d="M27.445 3.523a6.46 6.46 0 0 1 3.575 4.51l1.437 6.76c.491 2.313.534 4.673.15 6.96q.143.023.288.038c.455-1.971.587-4.022.371-6.072l-.722-6.875a6.28 6.28 0 0 0-4.326-5.327 6 6 0 0 0-.773.006m-.377.037a6.28 6.28 0 0 1 3.77 4.51l1.437 6.762a18.4 18.4 0 0 1 .148 6.89 6 6 0 0 1-.237-.05 18.6 18.6 0 0 0-.813-7.675l-2.136-6.574a6.45 6.45 0 0 0-3.059-3.683 6 6 0 0 1 .89-.18m.025-.19a6 6 0 0 1 .41-.037 6 6 0 0 0-.791-.102q.192.063.38.139Zm-1.114-.144q.374.079.734.2a6 6 0 0 0-.773.191 7 7 0 0 0-.73-.305 6 6 0 0 1 .769-.086m.014-.187a6.4 6.4 0 0 1 2.259.294 6.47 6.47 0 0 1 6.092 6.458v6.913c0 1.746-.245 3.468-.716 5.118h5.622a6.47 6.47 0 0 1 5.929 9.06 6.4 6.4 0 0 1-.758 2.146 6.4 6.4 0 0 1-.977 2.057 6.4 6.4 0 0 1-1.186 1.941 6.4 6.4 0 0 1-1.385 1.81 6.4 6.4 0 0 1-1.566 1.654 6.4 6.4 0 0 1-1.73 1.481 6.4 6.4 0 0 1-1.874 1.292c-.613.49-1.29.853-2 1.089a6.4 6.4 0 0 1-2.102.874 6.4 6.4 0 0 1-2.182.65 6.4 6.4 0 0 1-2.239.417 6.4 6.4 0 0 1-2.27.182 6.4 6.4 0 0 1-2.276-.057 6.4 6.4 0 0 1-2.257-.294 6.47 6.47 0 0 1-6.094-6.458v-5.764c0-2.156.374-4.274 1.086-6.267H9.376a6.47 6.47 0 0 1-5.93-9.058 6.4 6.4 0 0 1 .758-2.148 6.4 6.4 0 0 1 .977-2.056 6.4 6.4 0 0 1 1.189-1.945 6.4 6.4 0 0 1 1.383-1.807c.43-.656.964-1.21 1.565-1.653a6.4 6.4 0 0 1 1.73-1.481 6.4 6.4 0 0 1 1.874-1.293 6.4 6.4 0 0 1 2.001-1.09 6.4 6.4 0 0 1 2.103-.873 6.4 6.4 0 0 1 2.182-.65 6.4 6.4 0 0 1 2.239-.417c.76-.2 1.526-.255 2.27-.182a6.4 6.4 0 0 1 2.276.057m-1.542.059a6 6 0 0 1 .797.02q-.204.032-.403.078a7 7 0 0 0-.394-.098m-1.467.04a6 6 0 0 0-.795.064q.203.022.402.057a7 7 0 0 1 .393-.121m-.017.197a6 6 0 0 1 .755-.166q.38.04.751.124a6 6 0 0 0-.748.27 7 7 0 0 0-.758-.228m-.735.059a6 6 0 0 0-.76-.045 6 6 0 0 0-.734.244q.393.05.778.147.344-.194.716-.346m-.458.417q.398-.209.832-.361.447.081.875.224a6.4 6.4 0 0 0-.82.473 6.5 6.5 0 0 0-.887-.336m-.489.065a6 6 0 0 0-.894-.131q-.415.196-.79.446.467.087.918.242.36-.306.766-.557m-.563.63q.385-.314.82-.567.484.13.944.332-.432.315-.804.695a6.5 6.5 0 0 0-.96-.46m-.163.138q-.413.361-.755.786.533.26 1.019.62.32-.507.727-.946a6.3 6.3 0 0 0-.991-.46m-.202-.07a6.5 6.5 0 0 0-.726.775 6.5 6.5 0 0 0-1.004-.357q.35-.352.757-.65.495.078.973.233Zm-1.02-.426q.321-.23.676-.42a6 6 0 0 0-.76.036 6 6 0 0 0-.704.319q.396.008.788.065m-1.118.122q.454-.014.903.037a6.4 6.4 0 0 0-.704.634 6.5 6.5 0 0 0-.938-.145q.345-.286.74-.526Zm-.055-.184a6 6 0 0 1 .36-.2 6 6 0 0 0-.764.228q.203-.02.404-.028m-1.076.321q.374-.08.753-.114-.331.226-.628.488a7 7 0 0 0-.791.017 6 6 0 0 1 .666-.39Zm-.71.198a6 6 0 0 0-.737.307q.2-.042.4-.07.162-.123.336-.237Zm-.638.476a6 6 0 0 0-.574.551 7 7 0 0 0-.784.1 6 6 0 0 1 .622-.458 6 6 0 0 1 .736-.193m.374-.062q-.366.28-.68.6a6.5 6.5 0 0 1 .948.046 6.5 6.5 0 0 1 .634-.703 6 6 0 0 0-.902.057m1.166-.05a6 6 0 0 0-.685.726q.526.08 1.035.25a6.5 6.5 0 0 1 .642-.846 6 6 0 0 0-.992-.13m1.2.177a6.3 6.3 0 0 0-.67.861 6.4 6.4 0 0 1 1.08.511q.265-.538.624-1.018a6.3 6.3 0 0 0-1.034-.354m1.207.434a6.3 6.3 0 0 0-.638 1.035q.459.29.875.664l.224.202q.221-.67.578-1.271a6.2 6.2 0 0 0-1.04-.63Zm1.187.744a6.3 6.3 0 0 0-.575 1.293l1.2 1.08a6.4 6.4 0 0 1 .394-1.369l-.26-.288a6.3 6.3 0 0 0-.76-.716Zm1.157 1.158q-.258.651-.367 1.364l3.397 3.059a18.63 18.63 0 0 1 5.561 9.144l.05.029a18.44 18.44 0 0 0-4.413-8.9zm8.852 13.71a18.63 18.63 0 0 0-4.486-9.139L22.11 7.292a6.3 6.3 0 0 1 .706-1.227q.368.361.682.792l4.063 5.593a18.44 18.44 0 0 1 3.407 8.784zm-.167.122-.03-.017.06.257.013.01zm.256.414-.05-.31.07.034.028.31zm-.58-.82a18.45 18.45 0 0 0-5.455-8.865l-3.303-2.974a6 6 0 0 0-.041.722v.563l2.123 1.543a18.63 18.63 0 0 1 6.664 9.002zm-.381-.483a18.45 18.45 0 0 0-6.404-8.378l-2.014-1.464v.993l.786.453a18.63 18.63 0 0 1 7.632 8.396m-8.604-8.957v-1.02l-1.395-1.013q-.003.358.035.723l.058.559 1.302.752Zm-1.278-.523 1.278.738v.776q-.172-.08-.345-.158l-.829-.369zm-.222-.343-.045-.425a7 7 0 0 1-.033-.875l-1.334-.97a6.3 6.3 0 0 0-.076 1.411zm-1.47-.634 1.494.862.106 1.015-1.373-.612-.117-.55a6 6 0 0 1-.11-.715m-.21-.335a6.4 6.4 0 0 1 .101-1.422l-.313-.227a6.3 6.3 0 0 0-.893-.543q-.223.671-.293 1.384l1.399.808Zm-1.414-.603 1.428.825q.032.431.124.867l.089.418-1.57-.699a6.2 6.2 0 0 1-.071-1.41Zm-.16-.306q.076-.702.3-1.364a6 6 0 0 0-1.147-.4 6.3 6.3 0 0 0-.409 1.145q.51.188.995.468zm-1.298-.436q.482.18.945.446l.334.193q-.055.705.049 1.425l-1.475-.657a6.3 6.3 0 0 1 .146-1.407Zm-.133-.245a6.5 6.5 0 0 1 .399-1.125 6.3 6.3 0 0 0-1.085-.131 6.3 6.3 0 0 0-.476.981q.588.082 1.162.275m-1.227-.096q.598.079 1.183.278a6.5 6.5 0 0 0-.156 1.387l-.275-.122a6.5 6.5 0 0 0-1.038-.362 6.3 6.3 0 0 1 .286-1.181m-.124-.203a6.5 6.5 0 0 1 .451-.96q-.502 0-.997.08-.295.407-.519.851.532-.03 1.065.03Zm-1.158.163a6.4 6.4 0 0 1 1.094.017 6.5 6.5 0 0 0-.28 1.16 6.4 6.4 0 0 0-1.183-.151q.14-.527.37-1.026Zm-.121-.176q.204-.425.473-.82a6 6 0 0 0-.87.244q-.3.349-.54.729a6.5 6.5 0 0 1 .937-.153m-1.075.38q.485-.132.984-.185a6.5 6.5 0 0 0-.348 1.003 6.5 6.5 0 0 0-1.062.082q.176-.464.427-.9Zm-.122-.16a7 7 0 0 1 .447-.658q-.35.15-.68.342a6 6 0 0 0-.514.578q.366-.153.747-.262m-.971.567q.409-.197.84-.333a6.5 6.5 0 0 0-.385.864 6.5 6.5 0 0 0-.916.25q.2-.403.46-.781Zm-.125-.146q.117-.167.247-.329-.316.238-.605.52a6 6 0 0 1 .358-.191m-.852.732q.31-.226.64-.411-.21.341-.375.7a7 7 0 0 0-.715.338 6 6 0 0 1 .45-.627m-.57.47q-.289.27-.546.578a7 7 0 0 1 .335-.226q.1-.178.212-.352Zm-.387.693a6 6 0 0 0-.594.475 6 6 0 0 0-.382.672 7 7 0 0 1 .676-.41q.126-.375.3-.737m-.38.992a6 6 0 0 0-.752.5q-.177.424-.289.86.406-.248.844-.434.063-.468.197-.926m.002.845q.075-.492.23-.97.446-.23.924-.385-.11.523-.133 1.053-.526.11-1.02.302Zm-.225.295a6 6 0 0 0-.878.478q-.104.493-.128.99.473-.244.984-.407a6.5 6.5 0 0 1 .022-1.062Zm.161 1.006a6.3 6.3 0 0 1 .035-1.09 6.3 6.3 0 0 1 1.045-.322q-.009.6.092 1.19a6.4 6.4 0 0 0-1.172.222m-.168.245a6.3 6.3 0 0 0-1.005.43q-.008.547.079 1.087a6.4 6.4 0 0 1 1.143-.343 6.5 6.5 0 0 1-.217-1.174m.4 1.14a6.3 6.3 0 0 1-.219-1.196 6.2 6.2 0 0 1 1.194-.227q.137.684.42 1.33h-.3q-.56.001-1.095.093m-.13.213q-.606.121-1.163.35a6.27 6.27 0 0 0 3.03 4.263l5.986 3.457c.425.245.815.54 1.16.878l.21-.325a5.7 5.7 0 0 0-1.26-1.263L10.52 18.3a6.44 6.44 0 0 1-2.37-3.297m9.334 8.459a5.9 5.9 0 0 0-1.263-1.249L10.63 18.15a6.26 6.26 0 0 1-2.295-3.18 6.3 6.3 0 0 1 1.042-.086h.385a6.5 6.5 0 0 0 1.506 2.01l5.137 4.625a5.7 5.7 0 0 1 1.272 1.664q-.098.138-.192.279Zm.004.328-.19.296.09.096.163-.297zm.166-.087-.055-.08q.084-.125.17-.248l.033.074q-.076.126-.148.254m.01.363q-.075.132-.143.264l.062.074.121-.268zm.135-.134-.032-.053q.061-.108.125-.216l.016.043zm.016.408q-.052.114-.1.228l.037.048.084-.236zm.108-.192-.01-.02q.04-.09.083-.177l.002.005zm.026.466-.065.185.014.02q.025-.1.054-.199zm-.114.445-.025-.039-.077.238.043.045.06-.244Zm.092.412.045-.191.003.005-.033.204zm-.202.052-.055-.06-.084.288.076.06zm.1.42.051-.245.03.036-.035.25-.046-.04Zm-.204.072-.089-.07-.09.34q.06.03.117.064zm.109.434.053-.296.06.054-.031.293zm-.205.094-.128-.072q-.048.2-.092.399l.16.056zm.118.452q.025-.175.053-.349l.096.062q-.016.168-.027.338zm-.204.12-.173-.063q-.048.232-.09.465.105.016.209.036.024-.22.054-.439Zm.128.475q.023-.203.05-.405.067.027.135.058-.011.193-.02.387zm-.202.148a6 6 0 0 0-.22-.038 18.44 18.44 0 0 0 .64 8.796l1.781 5.48a6.26 6.26 0 0 0 3.136 3.664q.48-.157.92-.384a6.44 6.44 0 0 1-2.396-2.802l-2.345-5.265a18.63 18.63 0 0 1-1.516-9.451m6.446 17.417a6.25 6.25 0 0 1-2.416-2.776l-2.344-5.266a18.44 18.44 0 0 1-1.503-9.337q.09.02.178.044a18.63 18.63 0 0 0 2.488 9.868l2.881 4.992a6.5 6.5 0 0 0 1.618 1.863 6.3 6.3 0 0 1-.902.612m-.006.215a6.5 6.5 0 0 1-.864.385q.412.187.847.314.448-.106.865-.272a6.5 6.5 0 0 1-.848-.427m1.092.324a6 6 0 0 1-.903-.43q.461-.267.87-.605.434.317.908.557a6 6 0 0 1-.875.478m.006.2a6 6 0 0 1-.748.27q.37.084.75.123a6 6 0 0 0 .755-.165 7 7 0 0 1-.757-.228m1.118.113a6 6 0 0 1-.875-.224q.43-.208.82-.473.432.2.887.336-.398.209-.832.361m.015.191a6 6 0 0 1-.393.121q.397-.007.795-.064a6 6 0 0 1-.402-.057m1.12-.09a6 6 0 0 1-.76-.045q.372-.152.716-.346.383.096.777.147a6 6 0 0 1-.733.244m.737-.046q.392-.047.783-.147a7 7 0 0 1-.405-.014q-.186.085-.378.16Zm.721-.333a6 6 0 0 0 .761-.036 6 6 0 0 0 .703-.319 7 7 0 0 1-.788-.065q-.322.23-.675.42Zm.891-.58q.45.052.903.038.392-.24.739-.526a6.5 6.5 0 0 1-.938-.145 6.4 6.4 0 0 1-.704.634Zm.494-.684a6 6 0 0 1-.756.65 6 6 0 0 1-.973-.232 6.6 6.6 0 0 0 .726-.774q.49.22 1.003.356m.356-.107q.492.105.992.13a6 6 0 0 0 .684-.726 6.5 6.5 0 0 1-1.035-.25 6.4 6.4 0 0 1-.641.846m.46-.908q-.295.459-.668.86a6.3 6.3 0 0 1-1.034-.353q.359-.48.625-1.017a6.3 6.3 0 0 0 1.078.51Zm.281-.1q.526.17 1.066.244a6.3 6.3 0 0 0 .575-.926 6.4 6.4 0 0 1-1.126-.395q-.207.563-.515 1.077m.347-1.157q-.21.573-.526 1.096a6.2 6.2 0 0 1-1.1-.517q.292-.635.442-1.325l.242.176q.455.33.942.57m.23-.096q.56.258 1.148.4.26-.552.408-1.145a6.5 6.5 0 0 1-.995-.468l-.26-.15q-.076.701-.3 1.363Zm.125-1.465a6.3 6.3 0 0 1-.293 1.384 6.3 6.3 0 0 1-.894-.543l-.311-.226q.129-.696.1-1.422zm.195-.102.334.193q.461.266.945.447.152-.691.147-1.407l-1.475-.657c.07.478.085.956.05 1.424Zm-.25-1.514q.116.711.071 1.411l-1.427-.824a6.5 6.5 0 0 0-.124-.868l-.089-.417zm.165-.13 1.506.671a6.2 6.2 0 0 0-.219-1.396l-1.633-.53.132.405q.137.425.214.85m-.564-1.326.173.534a6 6 0 0 1 .185.7l-1.576-.7-.212-.999.024.008zm.147-.148 1.64.533a6 6 0 0 0-.256-.678l-.229-.513-1.445-.307-.025-.005zm-.526-1.016.308.946-1.278-.416-.126-.041-.175-.824q.629.19 1.271.335m.144-.159.13.029 1.314.279-.405-.909q-.654-.077-1.3-.2zm-.469-.842.258.795a18 18 0 0 1-1.248-.337l-.154-.727q.567.152 1.144.27Zm.143-.16q.633.123 1.277.204l-.34-.764q-.586-.056-1.167-.148zm-.436-.742.227.699a19 19 0 0 1-1.122-.27l-.135-.636q.511.119 1.03.207m.142-.165q.568.094 1.145.152l-1.104-2.478a5.9 5.9 0 0 1-.404-3.493l-.027.034a5.7 5.7 0 0 0-.186 4.012zm-.098-6.15a5.7 5.7 0 0 0 .31 3.749l1.145 2.573q.642.057 1.291.07l-1.88-3.257a5.9 5.9 0 0 1-.78-3.245zm.293-.385a5.7 5.7 0 0 0 .733 3.427l1.936 3.353h1.476l-2.922-4.022a5.9 5.9 0 0 1-1.1-2.926zm.293-.406a5.7 5.7 0 0 0 1.08 3.055l3.002 4.131h1.724a6 6 0 0 0-.453-.565l-3.857-4.283a5.9 5.9 0 0 1-1.346-2.556zm.293-.43c.204.976.662 1.89 1.341 2.644l3.857 4.283q.297.33.541.69h1.649a6.3 6.3 0 0 0-1.424-1.873l-4.283-3.856a5.9 5.9 0 0 1-1.511-2.152zm.087-.48-.136.215-.003-.015.127-.233zm.205.02a5.7 5.7 0 0 0 1.513 2.21l4.283 3.856a6.5 6.5 0 0 1 1.506 2.01h.386q.533-.001 1.042-.086a6.25 6.25 0 0 0-2.295-3.18l-4.663-3.388a5.9 5.9 0 0 1-1.585-1.73q-.091.155-.187.309Zm.08-.493q-.078.135-.16.269l-.018-.056q.073-.14.142-.28zm.214.001a5.7 5.7 0 0 0 1.587 1.764l4.663 3.388a6.44 6.44 0 0 1 2.37 3.297q.605-.121 1.164-.35a6.27 6.27 0 0 0-3.03-4.263l-4.992-2.882a5.9 5.9 0 0 1-1.562-1.31q-.098.18-.2.356m.074-.512q-.087.162-.179.322l-.043-.085q.078-.162.153-.326l.069.09Zm.222-.02a5.7 5.7 0 0 0 1.56 1.325l4.99 2.882a6.45 6.45 0 0 1 3.112 4.348q.503-.225.955-.532a6.28 6.28 0 0 0-3.703-5.178L33.8 25.974a5.9 5.9 0 0 1-1.437-.91q-.104.207-.211.409m.067-.536q-.094.19-.193.377l-.077-.104q.083-.188.161-.375.053.052.11.102Zm.23-.044c.423.37.903.678 1.427.912l5.265 2.344a6.47 6.47 0 0 1 3.802 5.225q.406-.296.76-.65a6.29 6.29 0 0 0-4.344-5.967l-5.48-1.782a6 6 0 0 1-1.21-.55 20 20 0 0 1-.22.468m.061-.567q-.1.22-.205.437l-.118-.113q.086-.213.167-.428zm.236-.072q.558.34 1.19.545l5.48 1.78a6.47 6.47 0 0 1 4.47 5.953 6.4 6.4 0 0 0 .56-.708 6.284 6.284 0 0 0-4.957-6.651l-5.637-1.199a6 6 0 0 1-.877-.259q-.11.27-.23.54Zm.056-.608q-.103.256-.215.508l-.166-.112q.089-.243.17-.489.105.048.211.093m.242-.103q.41.156.846.25l5.638 1.198a6.47 6.47 0 0 1 5.122 6.513 6 6 0 0 0 .35-.676 6.283 6.283 0 0 0-5.547-7.244l-5.732-.603a6 6 0 0 1-.443-.063q-.112.315-.234.625m.05-.662a18 18 0 0 1-.223.593 6 6 0 0 1-.22-.099q.09-.278.17-.56.135.036.273.066m.245-.14q.2.034.401.056l5.732.602a6.47 6.47 0 0 1 5.785 6.738 6.283 6.283 0 0 0-6.007-8.13h-5.676q-.11.369-.235.733Zm.041-.735q-.105.352-.225.698a6 6 0 0 1-.283-.067q.09-.322.167-.646.17.013.341.015m.055-.184c.476-1.65.724-3.371.724-5.118V9.79a6.285 6.285 0 0 0-5.213-6.19 6.47 6.47 0 0 1 3.782 5.226l.723 6.874a18.6 18.6 0 0 1-.369 6.108q.176.013.353.015Zm-.583.151a6 6 0 0 1-.277-.037q-.051.288-.112.575.114.04.23.075.085-.305.16-.613Zm-.21.792a6 6 0 0 1-.219-.071q-.056.253-.119.504.088.049.178.095.084-.263.16-.528m-.219.706-.166-.087q-.059.222-.122.443l.13.101q.081-.228.158-.457m-.225.639-.12-.09q-.059.195-.12.389.042.048.087.095.078-.196.153-.394m-.23.583-.078-.082q-.057.17-.118.34l.052.08q.074-.168.144-.338m-.232.538-.043-.063-.112.293.024.054.13-.284Zm-.235.5-.015-.032q-.05.123-.102.245l.004.015zm-.023-.519.088-.238-.018-.03-.076.253zm.14-.515.029.051q.051-.147.1-.296l-.049-.058zm-.066-.483-.063.246-.007-.014.049-.26zm.202-.044.06.074q.057-.174.108-.35l-.086-.074q-.039.175-.082.35m-.077-.494q-.033.153-.069.305l-.034-.047q.026-.155.048-.31zm.204-.064.098.086q.057-.204.11-.409l-.127-.078-.08.4Zm-.088-.51-.07.36-.068-.066.045-.358zm.205-.088q.069.045.14.087.057-.234.11-.47l-.175-.07a18 18 0 0 1-.075.453m-.102-.53q-.03.209-.067.418l-.106-.076q.021-.202.038-.406zm.204-.113.187.076q.056-.27.105-.542a6 6 0 0 1-.226-.048 18 18 0 0 1-.066.514m-.116-.559q-.027.24-.06.48l-.148-.072q.017-.23.027-.459.09.027.181.051m.02-.187a18.4 18.4 0 0 0-.807-7.57L29.06 7.48a6.26 6.26 0 0 0-3.136-3.663 6 6 0 0 0-.92.384A6.44 6.44 0 0 1 27.4 7.003l2.812 6.315a18.6 18.6 0 0 1 1.598 8.252q.097.03.193.055Zm-.376-.115a18.44 18.44 0 0 0-1.585-8.117l-2.811-6.315a6.25 6.25 0 0 0-2.415-2.776 6.3 6.3 0 0 0-.902.612 6.5 6.5 0 0 1 1.616 1.863l3.457 5.986a18.6 18.6 0 0 1 2.485 8.69q.077.03.155.057m-.008.193-.141-.05q.005.205.005.41l.113.063q.015-.21.023-.423m-.038.626-.1-.054q0 .18-.007.36l.075.06q.018-.183.032-.366m-.055.583-.06-.046-.016.313.04.044zm-.069.548-.024-.025-.02.263.008.013zm-.182-.486q.007-.127.01-.254l-.026-.023.006.265zm-.026-.533.044.04.004-.313-.065-.04zm-.212-.439.016.253-.01-.01-.035-.263zm.179-.104.08.052q0-.184-.006-.368l-.105-.043q.018.18.03.359Zm-.052-.571.12.052a18.44 18.44 0 0 0-2.458-8.523L25.37 6.87a6.3 6.3 0 0 0-1.602-1.834q-.461.4-.84.88.39.38.719.832l4.063 5.592a18.63 18.63 0 0 1 3.454 8.987Zm-8.37-15.539q.37-.47.822-.866a6.3 6.3 0 0 0-.938-.56q-.449.316-.833.702.502.315.948.724Zm-.114.148a6 6 0 0 0-.967-.735 6.3 6.3 0 0 0-.743.963q.425.336.8.752l.203.224q.29-.643.707-1.204m.174-1.695q.475.24.907.558.41-.338.872-.607a6 6 0 0 0-.904-.429 6 6 0 0 0-.875.478m1.12-.58q.438.18.847.427.416-.224.865-.386a6 6 0 0 0-.847-.314 6 6 0 0 0-.866.272Zm5.557 16.196a18.45 18.45 0 0 0-7.246-7.667l-.693-.4v.758a18.63 18.63 0 0 1 7.939 7.31Zm-.536-.515a18.44 18.44 0 0 0-7.403-6.588v.65a18.63 18.63 0 0 1 7.403 5.938m-7.589-6.019v-.658q-.21-.1-.42-.194l-.731-.325.079.753q.544.196 1.072.424m-1.05-.219q.533.195 1.05.421v.575a19 19 0 0 0-.983-.35l-.068-.646Zm-.216-.274-.081-.772-1.349-.6.207.97.862.281.36.121Zm-1.179-.191.76.247q.222.072.44.149l.07.654a19 19 0 0 0-1.112-.31zm-.248-.276-.212-.998-1.576-.702q.07.351.184.7l.174.535zm-1.36-.247 1.404.456.162.76-.371-.083-.888-.189zm-.289-.29-.132-.405a7 7 0 0 1-.214-.85l-1.506-.67c.02.465.092.933.219 1.395zm-1.57-.314 1.641.533.316.97-1.471-.312-.229-.514q-.15-.336-.256-.677Zm-.273-.284a6.4 6.4 0 0 1-.198-1.412l-.352-.157a6.3 6.3 0 0 0-.987-.345 6.3 6.3 0 0 0 .001 1.415zm-1.51-.295 1.568.51q.121.414.303.822l.173.39-1.68-.357a6.2 6.2 0 0 1-.363-1.365Zm-.22-.267a6.5 6.5 0 0 1 .011-1.396 6.2 6.2 0 0 0-1.206-.153 6.4 6.4 0 0 0-.161 1.205q.536.079 1.07.251zm-1.36-.157q.51.076 1.017.24l.367.12c.062.466.176.93.344 1.383l-1.58-.336a6.3 6.3 0 0 1-.148-1.407m-.181-.211q.024-.6.156-1.183-.55 0-1.088.097a6.3 6.3 0 0 0-.261 1.058 6.4 6.4 0 0 1 1.193.028m-1.22.16q.602-.046 1.215.027c-.005.463.04.93.135 1.389l-.294-.063a6.5 6.5 0 0 0-1.09-.137 6.3 6.3 0 0 1 .034-1.215Zm-.164-.171q.078-.526.242-1.034-.491.105-.958.286a6 6 0 0 0-.33.94 6.5 6.5 0 0 1 1.046-.192m-1.098.4q.525-.152 1.073-.211a6.5 6.5 0 0 0-.032 1.193 6.5 6.5 0 0 0-1.19.097q.028-.544.15-1.08Zm-.155 1.27q-.012.609.092 1.212.541-.036 1.1.022l.298.032a6.5 6.5 0 0 1-.28-1.368 6 6 0 0 0-1.21.101Zm1.398-.096c.046.468.144.932.295 1.383l1.606.169a6.4 6.4 0 0 1-.487-1.34l-.377-.08a6.3 6.3 0 0 0-1.037-.132m1.616.255q.174.68.505 1.32l1.708.18-.214-.37a6.5 6.5 0 0 1-.386-.787zm1.834.39q.143.33.326.647l.281.487 1.496.157-.415-.932zm1.912.406.404.907.902.095q.189.02.378.044l-.24-.739zm1.653.352.235.72q.573.08 1.137.192l-.137-.644a19 19 0 0 0-.452-.102zm1.436.318.135.635q.511.108 1.014.245l-.06-.572a18 18 0 0 0-1.09-.309Zm1.282.371.06.563q.455.128.902.28V14.3q-.475-.187-.962-.347m1.148.42v.487a18.6 18.6 0 0 1 6.176 3.622 18.45 18.45 0 0 0-6.176-4.108Zm5.503 3.78a18.5 18.5 0 0 0-5.503-3.096v.412a18.6 18.6 0 0 1 5.503 2.685Zm-5.689-2.738v-.423q-.436-.15-.881-.277l.05.483q.42.099.831.217m-.81-.021q.408.098.81.214v1.096a5.7 5.7 0 0 1-1.172 3.46 5.9 5.9 0 0 0 .534-3.132zm-.212-.24-.052-.494a19 19 0 0 0-.993-.244l.118.553q.466.081.927.185m-.886.011q.456.08.907.184l.178 1.702a5.7 5.7 0 0 1-.804 3.565 5.9 5.9 0 0 0 .204-3.171zm-.238-.228-.12-.563q-.553-.113-1.116-.193l.201.618q.52.054 1.035.138m-.972.055q.51.056 1.013.14l.5 2.351a5.7 5.7 0 0 1-.42 3.614l-.005.005a5.9 5.9 0 0 0-.131-3.165zm-.265-.213-.203-.626q-.23-.03-.46-.054l-.796-.084.308.692q.58.018 1.151.072m-1.067.117q.567.02 1.13.075l.982 3.024c.361 1.11.37 2.297.037 3.4l-.062.068a5.9 5.9 0 0 0-.48-2.959zm-.29-.194-.315-.71-1.468-.154.496.86h.908q.19 0 .38.004Zm-1.18.182h.801q.232 0 .463.005l1.643 3.69c.44.99.586 2.075.434 3.13l-.101.118a5.9 5.9 0 0 0-.782-2.688zm-.321-.186-.51-.884-1.716-.18q.176.313.392.61l.33.454zm-1.369.186h1.476l2.51 4.348c.498.862.757 1.832.763 2.81l-.13.16a5.9 5.9 0 0 0-1.021-2.366zm-.365-.186-.25-.346a6.5 6.5 0 0 1-.467-.742l-1.64-.172c.163.437.376.86.64 1.26zm-1.59.186h1.725l3.678 5.06a5.7 5.7 0 0 1 1.016 2.452l-.154.199a5.9 5.9 0 0 0-1.186-2.01l-4.625-5.136a6 6 0 0 1-.454-.565m-.348-.186a6.4 6.4 0 0 1-.624-1.282l-.383-.04a6.3 6.3 0 0 0-1.046-.023c.095.46.24.912.438 1.345zm-1.526.186h1.648q.244.357.542.689l4.625 5.137a5.7 5.7 0 0 1 1.188 2.065l-.174.238a5.9 5.9 0 0 0-1.269-1.632l-5.136-4.625a6.3 6.3 0 0 1-1.424-1.872m7.924 8.316.026.056.132-.214-.012-.045q-.075.1-.146.203m.285-.39.007.023.113-.173-.001-.006zm-.065.485-.102.167.01.022.093-.183zm-.048 2.645-.024.195.016.015.012-.206zm-.019.459-.032-.033q-.015.125-.026.249l.05.035zm.176.383q0-.097.004-.196l.004.005.01.205zm-.188.093-.065-.047-.023.3.087.041zm.186.39v-.25l.035.03.018.25zm-.185.113-.101-.05q-.01.175-.017.351l.127.038zm.197.402-.01-.3.071.04.03.292zm-.18.135-.141-.044a18.44 18.44 0 0 0 2.464 9.725l2.882 4.99a6.3 6.3 0 0 0 1.602 1.835 6.3 6.3 0 0 0 .84-.88 6.4 6.4 0 0 1-.72-.832l-3.388-4.663a18.63 18.63 0 0 1-3.54-10.131Zm7.76 15.477a6.3 6.3 0 0 1-.683-.792l-3.387-4.663a18.45 18.45 0 0 1-3.502-9.957l.106.04a18.63 18.63 0 0 0 4.652 10.238l3.52 3.91a6.3 6.3 0 0 1-.706 1.224m.022.278a6.5 6.5 0 0 1-.822.865q.446.323.938.56.447-.316.832-.702a6.4 6.4 0 0 1-.948-.723m1.08.587a6 6 0 0 1-.967-.735q.417-.561.707-1.203l.2.222q.377.417.803.753a6.3 6.3 0 0 1-.742.963Zm.032.235a6.5 6.5 0 0 1-.803.694q.459.203.943.332.436-.253.82-.567a6.5 6.5 0 0 1-.96-.459m1.123.322a6.3 6.3 0 0 1-.991-.46q.406-.44.727-.947.487.361 1.02.62-.342.425-.756.786Zm.872-.936q.37-.487.638-1.035a6.5 6.5 0 0 1-.877-.665l-.222-.2a6.5 6.5 0 0 1-.577 1.27c.328.246.677.456 1.038.63m-1.187-.744q.359-.61.575-1.293l-1.2-1.08a6.4 6.4 0 0 1-.394 1.37l.257.285q.358.397.762.718m-1.157-1.157a6.3 6.3 0 0 0 .368-1.364l-2.546-2.292a18.63 18.63 0 0 1-5.801-10.188l-.075-.032a18.44 18.44 0 0 0 4.593 10.032zm-8.079-14.089.057.024-.045-.247-.039-.025zm-.049-.48.02.012-.031-.204-.005-.004zm.276.403.036.193.022.01-.053-.2zm.124.442-.042-.02a18.44 18.44 0 0 0 5.717 9.95l2.45 2.207a6 6 0 0 0 .042-.724v-.561l-1.196-.87a18.63 18.63 0 0 1-6.971-9.982m8.167 10.622-1.087-.79a18.45 18.45 0 0 1-6.851-9.709l.005.003a18.63 18.63 0 0 0 7.933 9.501zm.186.365v.426q0 .445-.06.876l1.226 1.102a6.3 6.3 0 0 0 .223-1.395l-1.39-1.01Zm1.395.784-1.395-1.014v-1.02l.022.012 1.28.74.058.557q.039.366.035.725m.173.355a6.4 6.4 0 0 1-.249 1.404l.286.257a6.3 6.3 0 0 0 .832.633 6.3 6.3 0 0 0 .437-1.345zm1.343.747-1.333-.969a6.5 6.5 0 0 0-.033-.877l-.044-.424 1.487.859c.028.478.001.951-.077 1.41Zm.06-1.636a6 6 0 0 0-.111-.717l-.117-.549-1.35-.6-.023-.011.107 1.015 1.493.862Zm-1.693-.977-.104-.989q-.6-.276-1.174-.592v.843l.114.066zm-1.464-.849v-.836a18.63 18.63 0 0 1-7.55-7.978 18.45 18.45 0 0 0 7.55 8.814m-7.09-8.329a18.45 18.45 0 0 0 7.09 7.28v-.735a18.63 18.63 0 0 1-7.09-6.545m7.276 6.641v.744q.564.313 1.151.589l-.087-.831q-.541-.235-1.064-.502m1.042.29a18 18 0 0 1-1.042-.499v-.649q.476.222.965.416zm.217.295.088.838.121.055 1.228.546-.207-.973a19 19 0 0 1-1.23-.466m1.185.255a18 18 0 0 1-1.207-.466l-.078-.74q.549.211 1.111.388zm-.218-1.027-.153-.719q-.507-.143-1.003-.313l.068.646q.536.21 1.088.386m-1.283-.464-.067-.635a19 19 0 0 1-.876-.337v.56q.465.22.943.412m-1.13-.5v-.55a18.6 18.6 0 0 1-6.04-4.136 18.45 18.45 0 0 0 6.04 4.686m-5.457-4.37a18.5 18.5 0 0 0 5.458 3.618v-.17q0-.148.007-.294a18.6 18.6 0 0 1-5.465-3.154m5.648 3.22a6 6 0 0 0-.004.227v.25q.423.177.854.333l-.057-.547q-.399-.123-.793-.263m.772.062a19 19 0 0 1-.76-.255 5.7 5.7 0 0 1 1.463-3.408 5.9 5.9 0 0 0-.721 3.494l.018.17Zm.214.26.058.556q.486.17.981.312l-.133-.626a19 19 0 0 1-.906-.243Zm.864.04a19 19 0 0 1-.885-.24l-.026-.249a5.7 5.7 0 0 1 1.07-3.961 5.9 5.9 0 0 0-.351 3.549l.192.902Zm.2.049q.5.117 1.007.207l-.546-1.68a5.9 5.9 0 0 1-.021-3.566 5.7 5.7 0 0 0-.65 4.05zm-.15-14.003a18.44 18.44 0 0 0-7.532-4.42v1.04a5.88 5.88 0 0 1-1.8 4.237 6 6 0 0 1-.372.494 6 6 0 0 1-.319.53 6 6 0 0 1-.26.56q-.07.24-.16.478l-.04.105a6 6 0 0 1-.14.603 6 6 0 0 1-.074.613 6 6 0 0 1-.01.616q.033.25.047.503l.006.11a6 6 0 0 1 .119.607 6 6 0 0 1 .181.592 6 6 0 0 1 .242.57 6 6 0 0 1 .299.537 6 6 0 0 1 .355.506 6 6 0 0 1 .405.465q.193.162.373.342a18.4 18.4 0 0 0 6.61 4.245 5.88 5.88 0 0 1 1.702-3.67q.35-.351.679-.717.216-.275.42-.557.186-.295.359-.597.156-.316.298-.637.12-.33.228-.662.086-.339.157-.679.05-.347.086-.695.013-.353.013-.704a18 18 0 0 0-.061-.7 17 17 0 0 0-.134-.688 18 18 0 0 0-.203-.665 17 17 0 0 0-.271-.64q-.166-.315-.343-.62a23 23 0 0 0-.4-.573 24 24 0 0 0-.46-.53Zm-8.679 9.679a18.45 18.45 0 0 0 6.589 5.908v-.64a18.6 18.6 0 0 1-6.589-5.268m7.957-10.885a18.45 18.45 0 0 0-6.81-5.27v.566a18.6 18.6 0 0 1 6.81 4.704m-.295 26.147q.45.155.918.242-.375.25-.79.446a6 6 0 0 1-.894-.132q.406-.251.766-.556M9.313 10.54a6.5 6.5 0 0 0-.884.344q.156-.42.377-.825.385-.239.8-.419-.18.442-.293.9m35.53 21.005q-.103.176-.216.344a7 7 0 0 1-.05.408q.156-.365.265-.752Zm-.594 1.413a6 6 0 0 0 .155-.757q-.24.315-.516.6a6 6 0 0 1-.058.793q.228-.304.419-.636m-.655.932q.085-.451.103-.901a7 7 0 0 1-.734.6q.035.47 0 .947.338-.3.631-.646m-.656.912a7 7 0 0 0 .575-.542 6 6 0 0 1-.234.737 6 6 0 0 1-.482.588q.096-.39.14-.783Zm-.177-.095a6 6 0 0 0 .024-.997 6.5 6.5 0 0 1-.936.507q.087.524.089 1.058.435-.252.823-.568m-.826.783a6.5 6.5 0 0 0 .793-.52 6 6 0 0 1-.196.885 6 6 0 0 1-.696.576q.084-.47.099-.941m-.184-.112a6.3 6.3 0 0 0-.078-1.087 6.4 6.4 0 0 1-1.144.343q.162.578.217 1.173a6.3 6.3 0 0 0 1.005-.429m-.99.62q.51-.164.984-.407-.023.496-.128.99a6 6 0 0 1-.878.478q.054-.53.022-1.06Zm-.197-.134a6.3 6.3 0 0 0-.218-1.196 6.6 6.6 0 0 1-1.096.092h-.3q.284.647.42 1.331.616-.056 1.195-.227Zm-1.16.41a6.4 6.4 0 0 0 1.174-.22 6.3 6.3 0 0 1-.035 1.089 6.3 6.3 0 0 1-1.045.322 6.5 6.5 0 0 0-.093-1.19Zm-.22-.169a6.3 6.3 0 0 0-.438-1.345h-1.614q.387.614.623 1.282l.384.04q.53.055 1.045.023m-1.363.13.299.032q.558.057 1.099.022.105.602.092 1.213a6 6 0 0 1-1.21.1 6.5 6.5 0 0 0-.28-1.367m-.271-.215a6.2 6.2 0 0 0-.64-1.26h-1.716l.25.345q.262.36.467.743zm-1.537.025 1.605.169c.152.451.25.915.296 1.383a6.3 6.3 0 0 1-1.037-.132l-.377-.08a6.4 6.4 0 0 0-.487-1.34m-.327-.221a6 6 0 0 0-.392-.61l-.33-.454H33.46l.51.884zm-1.6.019 1.707.179c.221.426.389.869.505 1.32l-1.612-.343a6.5 6.5 0 0 0-.387-.787l-.213-.37Zm-.343-.223-.498-.861q-.66-.009-1.313-.064l.343.77.132.014zm-1.38.041.025.003 1.47.155.28.486q.184.318.326.647l-1.687-.358zm.508 1.142.173.39q.182.407.303.823l1.567.51a6.2 6.2 0 0 0-.364-1.366zm1.896.403q.25.682.343 1.384l.366.118q.508.165 1.018.24a6.3 6.3 0 0 0-.148-1.406zm1.778.378q.142.691.135 1.39a6.3 6.3 0 0 0 1.214.025c.05-.402.063-.81.035-1.215a6.5 6.5 0 0 1-1.091-.138zm1.57.205q.04.598-.032 1.193.548-.06 1.073-.21.12-.536.149-1.08a6.4 6.4 0 0 1-1.19.097m1.377-.133q-.023.53-.132 1.053a6 6 0 0 0 .923-.385 6 6 0 0 0 .23-.97q-.495.193-1.02.302Zm1.221-.383q-.063.467-.197.926a6 6 0 0 0 .753-.501q.177-.424.288-.86-.406.248-.844.435m1.07-.58a6 6 0 0 1-.221.764q.285-.25.541-.536a7 7 0 0 0 .309-.707q-.3.26-.63.48Zm.912-.738q-.06.196-.133.388.227-.323.414-.679-.135.15-.28.291Zm-.963 1.599q-.15.135-.31.26-.081.188-.174.374.26-.298.484-.634m-1.001 1.161a6 6 0 0 0 .381-.672q-.325.226-.676.411-.126.375-.3.737.311-.22.595-.476m-.911.685a6 6 0 0 0 .377-.826 6.5 6.5 0 0 1-.885.345 6.5 6.5 0 0 1-.293.9q.415-.18.8-.419Zm-.907.665q.368-.146.715-.338a6 6 0 0 1-.45.628q-.31.226-.64.411.21-.341.375-.701m-.138-.145a6 6 0 0 0 .33-.941 6.5 6.5 0 0 1-1.047.192q-.078.526-.242 1.034.492-.105.959-.285m-1.029.489a6.5 6.5 0 0 0 .916-.25q-.2.404-.461.782a6 6 0 0 1-.84.333q.226-.421.386-.865Zm-.14-.163q.178-.52.262-1.058a6.4 6.4 0 0 1-1.193-.028 6.5 6.5 0 0 1-.156 1.184 6.3 6.3 0 0 0 1.088-.098Zm-1.133.283a6.5 6.5 0 0 0 1.062-.082q-.177.464-.427.901a6 6 0 0 1-.983.184 6.4 6.4 0 0 0 .348-1.003m-.145-.188c.093-.395.147-.8.162-1.205a6.5 6.5 0 0 1-1.07-.251l-.286-.093a6.5 6.5 0 0 1-.01 1.396q.601.137 1.204.153m-1.229.032q.592.133 1.183.152a6 6 0 0 1-.37 1.026q-.544.039-1.092-.017.193-.567.28-1.16Zm-.157-.229a6.3 6.3 0 0 0-.001-1.415l-1.536-.498q.18.704.198 1.411l.352.157q.487.216.987.345m-1.337-.297.274.121q.513.228 1.039.362a6.3 6.3 0 0 1-.287 1.181 6 6 0 0 1-1.182-.277q.152-.681.156-1.387m-.2 1.568a6.5 6.5 0 0 1-.4 1.125q.54.113 1.086.131a6.3 6.3 0 0 0 .475-.981 6.4 6.4 0 0 1-1.16-.275Zm1.35.299a6.5 6.5 0 0 1-.451.96q.502 0 .997-.08a6 6 0 0 0 .518-.851 6.3 6.3 0 0 1-1.063-.03Zm1.28.013a6.4 6.4 0 0 1-.474.82q.442-.09.87-.243.3-.348.54-.73-.462.111-.937.153Zm1.195-.22a6 6 0 0 1-.447.658q.35-.15.68-.342a6 6 0 0 0 .513-.577 7 7 0 0 1-.746.261m1.096-.42a7 7 0 0 1-.248.329q.317-.238.606-.52a6 6 0 0 1-.358.19Zm-1.41 1.223q-.187.082-.377.152-.135.154-.28.3.34-.203.656-.452Zm-1.311.794a6 6 0 0 0 .57-.52q-.38.114-.77.181a6 6 0 0 1-.512.608q.363-.112.712-.269m-1.077.37q.334-.316.613-.669a6.5 6.5 0 0 1-.947.054 6.4 6.4 0 0 1-.557.766q.45-.045.89-.151Zm-1.068.352a7 7 0 0 0 .784-.1 6 6 0 0 1-.62.457q-.366.12-.737.193a6 6 0 0 0 .573-.55m-.087-.181q.336-.376.605-.793a6.5 6.5 0 0 1-1.055-.14 6.4 6.4 0 0 1-.55.909q.5.051 1 .024m-1.128.148q.472.057.948.045a6 6 0 0 1-.68.6q-.45.061-.902.058.345-.33.634-.703m-.83.884a6 6 0 0 1-.629.488 6 6 0 0 0 .752-.115 6 6 0 0 0 .667-.39 7 7 0 0 1-.79.017m1.171-.061q-.163.122-.336.236.375-.127.736-.306-.2.04-.4.07m-1.72.728a7 7 0 0 1-.404.028q-.175.105-.359.2.386-.09.764-.228Zm3.444-1.432q.16-.13.31-.27.195-.05.389-.11a6 6 0 0 1-.7.38Zm5.437-4.027q.113-.174.212-.353.172-.108.337-.227-.258.31-.549.58m3.928-5.511a7 7 0 0 0 .092-.401q.13-.156.25-.32-.15.375-.342.72Zm-19.5 11.986a7 7 0 0 1-.392-.098 7 7 0 0 1-.404.079q.395.035.797.02Zm-1.526-.128a6 6 0 0 0 .767-.086 7 7 0 0 1-.729-.305 6 6 0 0 1-.772.19q.36.122.734.201m-1.089-.334q.456-.06.89-.18a6.45 6.45 0 0 1-3.06-3.683l-1.781-5.481a18.6 18.6 0 0 1-.649-8.878q-.135-.016-.272-.026a18.44 18.44 0 0 0-.096 8.1l1.198 5.637a6.28 6.28 0 0 0 3.77 4.511M16.5 27.639a18.6 18.6 0 0 0-.09 8.148l1.198 5.638a6.46 6.46 0 0 0 3.575 4.509 6 6 0 0 1-.772.005 6.28 6.28 0 0 1-4.327-5.326l-.602-5.732a18.4 18.4 0 0 1 .682-7.246h.124q.105 0 .212.004m.233-.173q.13.01.26.026.044-.25.096-.497a6 6 0 0 0-.216-.06q-.075.264-.14.531m-.04-.576q-.079.282-.149.565a6 6 0 0 0-.256-.006h-.067q.096-.308.204-.613.136.024.268.054m.231-.134q.103.027.204.057.046-.216.1-.43l-.166-.08q-.072.226-.138.453m-.032-.528q-.078.24-.148.483a6 6 0 0 0-.256-.052q.095-.259.195-.514.105.04.209.083m.228-.102q.077.034.153.072.048-.188.1-.374l-.12-.085q-.069.192-.133.387m-.027-.493q-.074.208-.144.418l-.196-.078q.09-.22.184-.436.08.046.156.096m.225-.074.108.075.097-.325-.08-.08q-.065.165-.125.33m-.022-.466q-.07.18-.138.362l-.144-.089q.084-.186.172-.37.056.047.11.097m.22-.05.07.066q.044-.14.092-.28l-.048-.064q-.058.138-.114.278m-.016-.447-.13.313-.1-.086q.077-.157.158-.315zm-.203-.239-.1-.108a19 19 0 0 0-.21.35l.135.104q.085-.174.175-.346m-.259.517-.145-.113q-.117.206-.229.414.095.048.188.099.09-.202.186-.4m-.262.57a6 6 0 0 0-.199-.104q-.128.244-.248.49.126.037.25.08.095-.235.197-.466m-.267.638a6 6 0 0 0-.262-.082q-.137.292-.266.589l.066.007q.128.014.255.032.099-.274.207-.546m-.27.724-.21-.026-.124-.013q-.143.339-.27.682h.392q.1-.323.211-.643Zm-.269.83h-.404a18.4 18.4 0 0 0-1.097 6.266v5.764a6.285 6.285 0 0 0 5.213 6.192 6.47 6.47 0 0 1-3.782-5.226l-.603-5.732a18.6 18.6 0 0 1 .673-7.265Zm-.533-.187q.13-.354.275-.702l-6.558-.69a6.47 6.47 0 0 1-5.786-6.735 6.283 6.283 0 0 0 6.008 8.128zM3.626 18.63a6.283 6.283 0 0 0 5.547 7.243l6.615.695q.133-.31.277-.617l-.206-.048-6.761-1.437a6.47 6.47 0 0 1-5.123-6.512 6 6 0 0 0-.35.676Zm.553-.996a6.284 6.284 0 0 0 4.957 6.65l6.762 1.438q.125.026.249.058.127-.263.263-.521a6 6 0 0 0-.628-.246l-6.574-2.136a6.47 6.47 0 0 1-4.468-5.951 6.4 6.4 0 0 0-.56.708Zm.558-.976q-.276.285-.516.6a6 6 0 0 1 .156-.757q.19-.332.418-.636-.054.398-.058.793m.186.076A6.29 6.29 0 0 0 9.266 22.7l6.574 2.137q.338.11.657.258.12-.223.245-.443a5.7 5.7 0 0 0-.942-.532l-6.315-2.812a6.47 6.47 0 0 1-3.802-5.225q-.406.296-.76.651m.74-.865a6.5 6.5 0 0 0-.735.6q.018-.45.103-.9.293-.347.632-.647a6.4 6.4 0 0 0 0 .947m.194.092a6.28 6.28 0 0 0 3.703 5.178l6.315 2.811q.51.227.96.54.112-.189.228-.378a5.7 5.7 0 0 0-1.153-.879l-5.986-3.456a6.45 6.45 0 0 1-3.112-4.348q-.503.226-.955.532m.92-.72q-.49.215-.936.507a6 6 0 0 1 .024-.997q.389-.316.823-.568.002.534.09 1.058Zm-.085-1.273q.014-.472.099-.942a6 6 0 0 0-.696.576 6 6 0 0 0-.197.886q.377-.288.794-.52m-1.004.688q.045-.394.14-.784a6 6 0 0 0-.482.59 6 6 0 0 0-.234.736q.272-.289.576-.543Zm-.83.83q.04-.202.092-.4-.193.345-.342.719.12-.164.25-.32Zm.79-1.692q.138-.15.283-.292.06-.195.134-.39a6 6 0 0 0-.417.682m.876-1.26a6 6 0 0 0-.31.709q.3-.26.63-.48.085-.384.221-.764a6 6 0 0 0-.54.535Zm.681-.892q.081-.188.174-.373a6 6 0 0 0-.484.633q.151-.135.31-.26m-3.157 5.52a7 7 0 0 0-.05.408 7 7 0 0 0-.215.344q.11-.389.265-.752m17.078 28.962q.206-.012.41-.037.186.075.38.14a6 6 0 0 1-.79-.103M11.709 7.148q.186-.082.377-.151.135-.155.28-.302a6 6 0 0 0-.657.453m1.311-.794a6 6 0 0 0-.57.52q.38-.113.77-.181a6 6 0 0 1 .513-.608 6 6 0 0 0-.713.269m.987-.539q.15-.14.31-.27-.36.167-.7.382.193-.062.39-.112m.091.169q-.334.316-.613.669a6.5 6.5 0 0 1 .948-.054q.248-.401.556-.766-.45.044-.89.15Zm1.155-.171q-.336.375-.605.793.53.026 1.056.14.235-.475.55-.908a6 6 0 0 0-1.001-.025m1.212.05a6.3 6.3 0 0 0-.575.926q.575.144 1.126.395.207-.562.514-1.077a6.3 6.3 0 0 0-1.065-.244m1.245.305q-.316.523-.526 1.097.487.24.94.569l.244.177q.15-.69.442-1.325a6.2 6.2 0 0 0-1.1-.518m1.259.617a6.3 6.3 0 0 0-.436 1.346l1.306.949a6.4 6.4 0 0 1 .248-1.404l-.287-.259a6.3 6.3 0 0 0-.831-.632m1.272 1.03a6.2 6.2 0 0 0-.223 1.395l1.39 1.009v-.428q0-.445.058-.873L20.24 7.815Zm-.29-4.273q.203 0 .405.014a7 7 0 0 1 .378-.161 6 6 0 0 0-.783.147" class="ccustom" clip-rule="evenodd"/></svg>